<?xml version="1.0" encoding="UTF-8"?>
<!DOCTYPE svg PUBLIC "-//W3C//DTD SVG 1.1//EN" "http://www.w3.org/Graphics/SVG/1.1/DTD/svg11.dtd">
<!-- Creator: CorelDRAW 2021.5 -->
<svg xmlns="http://www.w3.org/2000/svg" xml:space="preserve" width="100%" height="100%" version="1.1" shape-rendering="geometricPrecision" text-rendering="geometricPrecision" image-rendering="optimizeQuality" fill-rule="evenodd" clip-rule="evenodd"
viewBox="0 0 2182.82 1389.07"
 xmlns:xlink="http://www.w3.org/1999/xlink"
 xmlns:xodm="http://www.corel.com/coreldraw/odm/2003">
 <g id="Слой_x0020_1">
  <metadata id="CorelCorpID_0Corel-Layer"/>
  <g id="_2249848006144">
   <g id="logo">
    <g>
     <path id="PetStory_x0020_online" fill="white" d="M228.22 357.42l0 139.86 -47.12 0 0 -357.7 131.89 0c39.16,0 69.76,9.98 91.98,30.02 22.22,19.96 33.29,46.45 33.29,79.41 0,34.71 -10.81,61.46 -32.53,80.24 -21.72,18.78 -52.83,28.17 -93.24,28.17l-84.27 0zm276.69 642.57l-0.09 -0.19 -0.1 -0.23 0.19 0.42zm-57.09 -125.03l-0.01 -0.01 -0.19 -0.42 0.08 0.17 0.02 0.06 0.1 0.2zm0.47 1.01l0.56 1.27 0.62 1.35 0.62 1.35 0.62 1.36 0.62 1.35 0.62 1.36 0.62 1.36 0.62 1.35 0.62 1.36 0.62 1.36 0.06 0.14 0.21 -0.33 -0.12 -0.25 -0.12 -0.23 -0.01 -0.02 -0.12 -0.24 -0.12 -0.25 -0.13 -0.25 -0.12 -0.25 -0.12 -0.25 -0.25 -0.5 -0.12 -0.24 -0.12 -0.25 -0.12 -0.25 -0.13 -0.25 -0.12 -0.25 -0.05 -0.09 -0.07 -0.16 -0.12 -0.25 -0.13 -0.25 -0.12 -0.25 -0.12 -0.25 -0.12 -0.25 -0.07 -0.14 -0.05 -0.11 -0.13 -0.25 -0.12 -0.25 -0.12 -0.25 -0.12 -0.25 -0.12 -0.25 -0.1 -0.19 -0.02 -0.06 -0.12 -0.25 -0.12 -0.25 -0.12 -0.25 -0.13 -0.26 -0.12 -0.25 -0.12 -0.24 0 -0.01 -0.12 -0.25 -0.12 -0.25 -0.12 -0.25 -0.12 -0.25 -0.12 -0.25 -0.12 -0.26 -0.02 -0.04 -0.1 -0.21 -0.12 -0.25 -0.12 -0.25 -0.12 -0.25 -0.11 -0.26 -0.12 -0.25 -0.05 -0.09 -0.07 -0.16 -0.12 -0.25 -0.12 -0.26 -0.12 -0.25 -0.12 -0.25 -0.12 -0.25 -0.07 -0.15 -0.16 -0.36 -0.05 -0.09 -0.07 -0.16 -0.12 -0.26 -0.11 -0.25 -0.12 -0.25 0.47 1.01zm91.92 196.64l-0.42 -1.06 0 -0.01 -0.44 -1.05 -0.11 -0.29 -0.33 -0.77 -0.23 -0.57 -0.22 -0.5 -0.35 -0.85 -0.1 -0.22 -0.47 -1.08 -0.02 -0.05 -0.45 -1.03 -0.15 -0.34 -0.33 -0.74 -0.27 -0.62 -0.22 -0.47 -0.4 -0.91 -0.09 -0.18 -0.5 -1.1 -0.05 -0.09 -0.46 -1 -0.18 -0.39 -0.33 -0.71 -0.32 -0.68 -0.2 -0.43 -0.46 -0.96 -0.07 -0.15 -0.53 -1.11 -0.07 -0.15 -0.47 -0.97 -0.21 -0.43 -0.33 -0.69 -0.35 -0.72 -0.2 -0.4 -0.5 -1.02 -0.05 -0.1 -0.56 -1.13 -0.09 -0.19 -0.47 -0.95 -0.24 -0.48 -0.33 -0.65 -0.39 -0.79 -0.18 -0.35 -0.54 -1.08 -0.03 -0.06 -0.58 -1.15 -0.12 -0.24 -0.46 -0.91 -0.28 -0.54 -0.31 -0.61 -0.43 -0.84 -0.16 -0.32 -0.58 -1.14 -0.01 -0.02 -0.6 -1.16 -0.14 -0.29 -0.45 -0.87 -0.31 -0.59 -0.29 -0.58 -0.46 -0.9 -0.14 -0.27 -0.61 -1.18 -0.01 -0.03 -0.59 -1.14 -0.18 -0.34 -0.43 -0.84 -0.33 -0.65 -0.28 -0.54 -0.49 -0.95 -0.12 -0.23 -0.61 -1.19 -0.04 -0.08 -0.57 -1.11 -0.2 -0.39 -0.41 -0.81 -0.36 -0.7 -0.25 -0.5 -0.52 -1.01 -0.1 -0.19 -0.61 -1.2 -0.06 -0.13 -0.55 -1.08 -0.23 -0.44 -0.38 -0.76 -0.39 -0.76 -0.23 -0.46 -0.54 -1.07 -0.07 -0.14 -0.61 -1.22 -0.08 -0.17 -0.52 -1.05 -0.25 -0.49 -0.36 -0.73 -0.4 -0.81 -0.21 -0.41 -0.55 -1.14 -0.05 -0.09 -0.6 -1.23 -0.11 -0.22 -0.49 -1.01 -0.26 -0.55 -0.34 -0.69 -0.41 -0.87 -0.18 -0.36 -0.57 -1.2 -0.02 -0.04 -0.59 -1.25 -0.13 -0.27 -0.46 -0.97 -0.28 -0.6 -0.21 -0.44 0.61 1.35 0.62 1.35 0.62 1.36 0.62 1.35 0.62 1.36 0.62 1.35 0.62 1.36 0.62 1.36 0.62 1.36 0.62 1.36 0.62 1.36 0.62 1.36 0.63 1.36 0.62 1.37 0.62 1.37 0.63 1.37 0.63 1.37 0.62 1.37 0.63 1.38 0.63 1.38 0.63 1.38 0.63 1.38 0.64 1.39 0.63 1.38 0.64 1.4 0.63 1.39 0.64 1.4 0.64 1.4 0.64 1.4 0.64 1.41 0.65 1.41 0.64 1.42 0.65 1.41 0.65 1.43 0.65 1.42 0.66 1.43 0.65 1.44 0.66 1.43 0.66 1.45 0.66 1.44 0.66 1.46 0.67 1.45 0.66 1.47 0.67 1.46 0.67 1.47 0.68 1.48 0.68 1.48 0.67 1.49 0.69 1.49 0.68 1.5 0.46 1 2.35 0.47zm-34.87 -71.68l-0.09 -0.21 0.09 0.21zm-0.62 -1.36l-0.05 -0.1 -0.57 -1.25 0.62 1.35zm69.54 71.66l-0.06 -0.12 -0.73 -1.39 -0.18 -0.36 -0.6 -1.15 -0.31 -0.61 -0.46 -0.9 -0.43 -0.86 -0.34 -0.66 -0.55 -1.11 -0.21 -0.42 -0.66 -1.36 -0.83 -1.7 -0.03 -0.08 -0.71 -1.45 -0.15 -0.33 -0.57 -1.21 -0.27 -0.58 -0.46 -0.97 -0.38 -0.83 -0.33 -0.72 -0.49 -1.08 -0.22 -0.47 -0.6 -1.34 -0.1 -0.21 -0.69 -1.56 -0.02 -0.04 -0.67 -1.53 -0.13 -0.29 -0.55 -1.27 -0.24 -0.55 -0.44 -1.03 -0.34 -0.8 -0.33 -0.77 -0.45 -1.06 -0.21 -0.52 -0.55 -1.32 -0.11 -0.26 -0.65 -1.58 -0.01 0 -0.64 -1.59 -0.11 -0.25 -0.54 -1.34 -0.2 -0.51 -0.43 -1.08 -0.31 -0.77 -0.32 -0.83 -0.41 -1.03 -0.22 -0.56 -0.5 -1.3 -0.12 -0.31 -0.6 -1.55 -0.02 -0.05 -0.61 -1.61 -0.08 -0.21 -0.53 -1.4 -0.18 -0.47 -0.43 -1.14 -0.27 -0.73 -0.32 -0.88 -0.37 -1 -0.23 -0.62 -0.46 -1.26 -0.13 -0.36 -0.56 -1.53 -0.03 -0.09 -0.58 -1.62 -0.07 -0.17 -0.52 -1.45 -0.15 -0.44 -0.42 -1.19 -0.25 -0.7 -0.33 -0.93 -0.34 -0.97 -0.23 -0.66 -0.43 -1.23 -0.13 -0.4 -0.52 -1.5 -0.05 -0.14 -0.56 -1.63 -0.05 -0.13 -0.51 -1.51 -0.14 -0.4 -0.42 -1.24 -0.22 -0.66 -0.33 -0.98 -0.31 -0.93 -0.24 -0.71 -0.4 -1.2 -0.15 -0.44 -0.49 -1.47 -0.06 -0.18 -0.55 -1.64 -0.03 -0.09 -0.51 -1.56 -0.12 -0.35 -0.42 -1.29 -0.21 -0.62 -0.33 -1.03 -0.3 -0.89 -0.24 -0.76 -0.38 -1.16 -0.16 -0.49 -0.47 -1.42 -0.07 -0.23 -0.54 -1.65 -0.01 -0.04 -0.52 -1.61 -0.1 -0.31 -0.43 -1.34 -0.19 -0.58 -0.35 -1.07 -0.27 -0.85 -0.26 -0.8 -0.36 -1.12 -0.17 -0.54 -0.45 -1.38 -0.09 -0.27 -0.53 -1.65c-10.96,-11.94 -19.68,-6.95 -28.41,-1.96 -15.25,14.79 -30.54,17.47 -13.03,31.71l0.69 1.14 0.33 0.54 0.36 0.6 0.66 1.09 0.03 0.04 0.68 1.14 0.29 0.49 0.38 0.64 0.62 1.04 0.05 0.1 0.67 1.13 0.26 0.44 0.41 0.69 0.57 0.98 0.08 0.15 0.66 1.12 0.23 0.4 0.42 0.73 0.53 0.93 0.11 0.19 0.65 1.13 0.19 0.35 0.44 0.77 0.5 0.88 0.14 0.24 0.63 1.12 0.16 0.3 0.46 0.82 0.46 0.84 0.16 0.28 0.62 1.12 0.13 0.25 0.48 0.86 0.43 0.79 0.18 0.33 0.6 1.12 0.11 0.2 0.5 0.91 0.39 0.74 0.2 0.37 0.59 1.12 0.08 0.15 0.51 0.96 0.36 0.69 0.23 0.42 0.58 1.11 0.05 0.11 0.52 1 0.33 0.64 0.25 0.47 0.56 1.11 0.03 0.06 0.54 1.05 0.3 0.59 0.26 0.51 0.56 1.11 0 0.02 0.55 1.09 0.27 0.55 0.28 0.56 0.53 1.07 0.01 0.03 0.54 1.11 0.24 0.5 0.3 0.6 0.5 1.03 0.04 0.08 0.53 1.11 0.21 0.45 0.31 0.65 0.46 0.98 0.06 0.13 0.52 1.1 0.19 0.41 0.33 0.7 0.43 0.93 0.08 0.17 0.51 1.11 0.16 0.36 0.34 0.74 0.4 0.89 0.1 0.22 0.5 1.1 0.14 0.32 0.35 0.79 0.37 0.84 0.12 0.26 0.49 1.11 0.11 0.27 0.37 0.84 0.34 0.79 0.14 0.31 0.47 1.11 0.09 0.22 0.39 0.89 0.31 0.75 0.15 0.35 0.47 1.11 0.07 0.18 0.39 0.93 0.29 0.71 0.17 0.4 0.45 1.11 0.05 0.13 0.4 0.98 0.27 0.66 0.18 0.45c-11.72,-4.25 -21.75,-11.79 -30.05,-22.63 -13.67,-17.86 -20.46,-41.58 -20.46,-71.01 0,-4.4 0.12,-8.66 0.36,-12.79l0.09 0.25 0.08 0.24 0.09 0.25 0.01 0.04 0.07 0.21 0.09 0.24 0.08 0.25 0.09 0.25 0.08 0.24 0.09 0.25 0.08 0.22 0 0.03 0.08 0.24 0.09 0.25 0.08 0.25 0.09 0.25 0.08 0.24 0.08 0.25 0.06 0.17 0.03 0.08 0.08 0.25 0.08 0.24 0.08 0.25 0.09 0.25 0.08 0.25 0.08 0.24 0.04 0.11 0.04 0.14 0.09 0.25 0.08 0.25 0.08 0.25 0.08 0.24 0.08 0.25 0.08 0.25 0.02 0.05 0.06 0.2 0.09 0.25 0.08 0.24 0.08 0.25 0.08 0.25 0.08 0.25 0.08 0.24 0 0.01 0.08 0.25 0.08 0.25 0.08 0.24 0.08 0.25 0.08 0.25 0.08 0.25 0.05 0.18 0.02 0.07 0.08 0.25 0.08 0.25 0.08 0.25 0.08 0.25 0.08 0.25 0.08 0.25 0.04 0.12 0.04 0.13 0.07 0.25 0.08 0.25 0.08 0.25 0.08 0.25 0.07 0.25 0.08 0.25 0.02 0.06 0.06 0.19 0.08 0.25 0.07 0.25 0.08 0.25 0.08 0.25 0.07 0.25 0.08 0.25c4.37,-2.5 13.09,-7.49 17.46,-9.98 6.53,-9.8 10.89,-12.3 21.81,-12.48l-0.47 -0.75 -0.45 -0.72 -0.02 -0.03 -0.46 -0.75 -0.43 -0.7 -0.03 -0.06 -0.46 -0.76 -0.41 -0.68 -0.05 -0.08 -0.46 -0.77 -0.39 -0.66 -0.06 -0.11 -0.45 -0.78 -0.37 -0.63 -0.08 -0.15 -0.45 -0.78 -0.34 -0.61 -0.1 -0.18 -0.44 -0.79 -0.33 -0.58 -0.11 -0.21 -0.44 -0.8 -0.31 -0.56 -0.13 -0.24 -0.43 -0.8 -0.29 -0.54 -0.14 -0.27 -0.43 -0.81 -0.27 -0.51 -0.16 -0.3 -0.43 -0.82 -0.25 -0.49 -0.17 -0.33 -0.42 -0.82 -0.24 -0.46 -0.18 -0.37 -0.42 -0.83 -0.22 -0.44 -0.2 -0.4 -0.41 -0.83 -0.2 -0.41 -0.21 -0.44 -0.41 -0.84 -0.19 -0.38 -0.22 -0.47 -0.41 -0.85 -0.17 -0.35 -0.24 -0.5 -0.4 -0.86 -0.4 -0.86 -0.4 -0.86 -0.14 -0.29 -0.26 -0.58 -0.4 -0.87 -0.13 -0.26 -0.27 -0.61 -0.39 -0.88 -0.11 -0.23 -0.29 -0.65 -0.39 -0.88 -0.09 -0.2 -0.3 -0.69 -0.39 -0.89 -0.08 -0.17 -0.31 -0.72 -0.38 -0.89 -0.07 -0.14 -0.32 -0.76 -0.77 -1.81 -0.38 -0.9 -0.04 -0.08 -0.34 -0.83 -0.38 -0.92 -0.02 -0.04 -0.36 -0.87 -0.37 -0.92 -0.01 -0.01 -0.37 -0.91 -0.37 -0.9 -0.01 -0.03 -0.37 -0.93 -0.75 -1.86 -0.34 -0.84 -0.03 -0.1 -0.37 -0.94 -0.32 -0.8 -0.05 -0.14 -0.37 -0.94 -0.3 -0.78 -0.06 -0.17 -0.37 -0.95c0.66,-0.95 1.34,-1.87 2.04,-2.78 13.75,-17.86 31.86,-26.74 54.25,-26.74 22.97,0 41.33,9.05 55.17,27.16 13.83,18.11 20.71,41.68 20.71,70.85 0,32.62 -6.79,57.94 -20.37,76.06 -9.39,12.51 -21.06,20.7 -34.98,24.57zm-85.53 -106.67l-0.08 -0.32 -0.08 -0.31 -0.08 -0.32 -0.08 -0.3 0 -0.02 -0.09 -0.31 -0.08 -0.32 -0.09 -0.32 -0.08 -0.28 -0.01 -0.04 -0.09 -0.32 -0.09 -0.32 -0.09 -0.32 -0.08 -0.26 -0.01 -0.06 -0.1 -0.32 -0.09 -0.32 -0.1 -0.32 -0.07 -0.25 -0.02 -0.07 -0.1 -0.32 -0.1 -0.33 -0.1 -0.32 -0.07 -0.24 -0.03 -0.08 -0.1 -0.33 -0.11 -0.32 -0.1 -0.33 -0.07 -0.22 -0.04 -0.1 -0.11 -0.33 -0.1 -0.32 -0.11 -0.33 -0.07 -0.2 -0.04 -0.13 -0.11 -0.33 -0.12 -0.32 -0.11 -0.33 -0.06 -0.19 -0.05 -0.14 -0.12 -0.33 -0.12 -0.33 -0.11 -0.33 -0.06 -0.17 -0.06 -0.16 -0.12 -0.33 -0.12 -0.33 -0.12 -0.33 -0.06 -0.16 -0.06 -0.17 -0.13 -0.34 -0.12 -0.33 -0.13 -0.33 -0.05 -0.14 -0.07 -0.2 -0.13 -0.33 -0.13 -0.33 -0.13 -0.34 -0.04 -0.12 -0.09 -0.21 -0.13 -0.34 -0.13 -0.33 -0.13 -0.34 -0.04 -0.1 -0.09 -0.24 -0.14 -0.34 -0.13 -0.33 -0.14 -0.34 -0.03 -0.08 -0.11 -0.26 -0.13 -0.34 -0.14 -0.34 -0.14 -0.34 -0.03 -0.06 -0.11 -0.28 -0.14 -0.34 -0.14 -0.34 -0.15 -0.34 -0.02 -0.05 -0.12 -0.29 -0.62 3.76 0.15 0.32 0.69 1.51 0.69 1.52 0.69 1.52 0.7 1.53 0.7 1.53 0.71 1.54 0.7 1.55 0.71 1.56 0.72 1.56 0.71 1.57 0.72 1.57zm-41.11 -90.03l-0.04 -0.08 -0.11 -0.25 -0.12 -0.26 -0.12 -0.25 -0.11 -0.26 -0.12 -0.25 0.62 1.35zm-18.19 -39.83l0 -0.01c-4.34,-21.3 -25.49,-56.28 -38.73,-84.82l-0.18 -0.38 0 -0.01 -0.62 -1.35 0.62 1.35 0 0.01 0.18 0.38 38.73 84.82 0 0.01 0.2 0.44 0.19 0.41 0.17 0.38 0.01 0.01 0.16 0.35 0.15 0.33 0.14 0.31 0.13 0.29 0.12 0.26 0.11 0.24 0.11 0.23 0.09 0.2 0.08 0.19 0.08 0.16 0.07 0.15 0.06 0.14 0.06 0.12 0.04 0.1 0.05 0.1 0.03 0.08 0.03 0.07 0.02 0.04 0.01 0.01 0.02 0.05 0.02 0.04 0.03 0.06 0.01 0.02 0 0.01 0.01 0.02 -0.01 -0.02 0 -0.01 -0.01 -0.02 -0.03 -0.06 -0.02 -0.04 -0.02 -0.05 -0.01 -0.01 -0.02 -0.04 -0.03 -0.07 -0.03 -0.08 -0.05 -0.1 -0.04 -0.1 -0.06 -0.12 -0.06 -0.14 -0.07 -0.15 -0.08 -0.16 -0.08 -0.19 -0.09 -0.2 -0.11 -0.23 -0.11 -0.24 -0.12 -0.26 -0.13 -0.29 -0.14 -0.31 -0.15 -0.33 -0.16 -0.35 -0.01 -0.01 -0.17 -0.38 -0.19 -0.41 -0.2 -0.44zm37.13 -3.03c-19.74,-31.17 -32.95,-72.14 -48.35,-117.92 -8.76,-7.13 -17.48,-2.14 -26.21,2.85 -15.25,14.79 -30.54,17.46 -13.03,31.71 19.74,31.17 37.31,69.65 48.32,105.81 4.37,-2.49 13.09,-7.48 17.45,-9.98 6.53,-9.8 10.9,-12.29 21.82,-12.47zm-94.23 -122.01c-4.35,-21.33 -25.53,-56.35 -38.78,-84.91l-0.14 -0.3 0 -0.01 -0.62 -1.35 0.62 1.35 0 0.01 0.14 0.3 38.78 84.91 0.56 1.24 0.81 1.78 0.82 1.79 -0.82 -1.79 -0.81 -1.78 -0.56 -1.24zm37.12 -3.04c-19.73,-31.17 -32.94,-72.14 -48.34,-117.92 -8.76,-7.12 -17.49,-2.13 -26.21,2.86 -15.26,14.78 -32.74,12.65 -13.03,31.71 19.73,31.17 37.31,69.64 48.32,105.8 4.36,-2.49 13.09,-7.48 15.25,-14.78 8.73,-4.99 13.09,-7.49 24.01,-7.67zm-8.4 138.24c-15.71,-1.91 -27.91,-5.86 -42.9,-8.18l-4.31 -0.61 -0.05 -0.01 -0.01 0 -0.81 -0.1 0.81 0.1 0.01 0 0.05 0.01 3.99 0.45c14.46,1.58 24.95,2.05 42,7.91l0.3 0.11 0.92 0.32c6.56,2.32 6.56,2.32 0,0l-0.92 -0.32 -0.3 -0.11 -5.34 -1.88 -0.03 -0.01c-3.43,-1.69 -6.79,-3.26 -10.09,-4.7 -3.52,-1.54 -6.97,-2.94 -10.36,-4.27l-0.05 -0.03 -0.1 -0.04c-19.75,-7.72 -37.33,-12.42 -53.71,-21.23 16.26,5.74 32.52,11.46 53.71,21.23l0.1 0.04 0.05 0.03c4.43,2.04 9.04,4.24 13.93,6.66l-3.57 -2.39c-1.73,-1.13 -3.47,-2.23 -5.22,-3.29 -20.83,-12.64 -43.04,-20.66 -65.29,-28.52l-0.01 -0.01 -1.23 -0.43 0 -0.01 -1.23 -0.43 1.23 0.43 0 0.01 1.23 0.43 0.01 0.01c19.83,7.18 40.97,17.04 65.29,28.52l21.9 10.31zm-6.56 -2.31l-0.03 -0.01 -0.62 -0.22 -0.57 -0.2 -0.61 -0.21 -0.6 -0.21 -0.56 -0.2c-20.34,-7.11 -37.16,-12.67 -56.54,-16.55l-3.86 -0.74c2.23,0.79 4.43,1.51 6.62,2.19 16.39,5.09 32.09,7.69 53.78,15.1l0.56 0.2 0.6 0.21 0.61 0.21 0.57 0.2 0.65 0.23zm-2.16 7.3l-0.01 0 0 0.01 -0.02 0.01 -0.02 0.01 -0.03 0.01 -0.02 0.02 -0.01 0 -0.02 0.02 -0.02 0 -0.03 0.02 -0.01 0c-0.87,0.42 -4.46,1.79 -6.37,-2.41 -32.77,0.54 -61.17,-1.42 -87.38,1.43 13.45,2.49 27.59,2.69 42.02,1.89l0.22 -0.01 0.02 -0.01c10.07,-0.58 20.28,-1.61 30.51,-2.72l0.03 -0.01 1.2 -0.12 0.02 -0.01 1.21 -0.13 1.23 -0.13 -1.23 0.13 -1.21 0.13 -0.02 0.01 -1.2 0.12 -0.03 0.01c-10.88,1.12 -20.99,1.83 -30.51,2.72l-0.02 0.01 -0.22 0.01c-11.91,1.12 -22.89,2.51 -33.26,5.24 13.82,-0.23 29.39,-1.45 45.6,-3.05 9.41,-0.92 19.04,-1.97 28.66,-3.02 -9.94,0.16 -19.42,1.32 -28.66,3.02 -11.06,2.04 -21.77,4.86 -32.48,7.68 26.2,-2.86 45.85,-8.02 67.69,-8.38l4.18 -2.4 0.01 0 0.03 -0.02 0.02 0 0.02 -0.02 0.01 0 0.02 -0.02 0.03 -0.01 0.02 -0.01 0.02 -0.01 0 -0.01 0.01 0zm-4.37 2.5c-15.28,2.67 -30.57,5.34 -45.85,8.02 15.28,-2.68 30.57,-5.35 45.85,-8.02zm17.55 26.36l-0.41 0.24 -0.2 0.11 -0.01 0.01 -0.19 0.12 -0.4 0.23 -0.02 0.01 -0.57 0.35 -0.05 0.03 -0.53 0.33c-11.07,6.9 -23.46,18.24 -34.69,25.62l-0.15 0.09 -0.59 0.39 -0.52 0.34 -0.08 0.04 -0.55 0.36 -0.05 0.02 -0.58 0.36 -0.02 0.02 -0.6 0.36 -0.01 0 -0.6 0.36 -0.01 0.01 -0.61 0.35 0.61 -0.35 0.01 -0.01 0.6 -0.36 0.01 0 0.6 -0.36 0.02 -0.02 0.58 -0.36 0.05 -0.02 0.55 -0.36 0.08 -0.04 0.52 -0.34 0.59 -0.39 0.15 -0.09c10.95,-7.31 20.62,-17.44 31.88,-24.09l0.21 -0.12 0.61 -0.35 -0.61 0.35 -0.21 0.12 -3.54 2.03 -0.55 0.31 -0.27 0.16 -0.54 0.31 -0.28 0.16 -0.54 0.31 -0.27 0.15 -0.55 0.32 -0.27 0.15 -0.82 0.47 -0.81 0.47 -0.01 0 -46.62 26.65 -0.82 0.47 0.82 -0.47c17.08,-9.96 36.24,-26.67 57.47,-38.93l0.34 -0.19 0.25 -0.14 -0.25 0.14 -0.34 0.19 -3.77 2.16c-24.01,7.67 -52.36,29.94 -67.61,44.73 13.11,4.63 39.29,-10.34 58.91,-27.62 -13.06,19.59 -28.28,46.49 -36.98,63.6 19.65,-5.17 54.46,-61.47 56.6,-80.89 4.36,-2.49 4.36,-2.49 8.73,-4.99l7.27 -4.16 0.02 -0.02 0.14 -0.07 0.06 -0.04 0.11 -0.06 0.1 -0.06 0.07 -0.04 0.13 -0.07 0.05 -0.03 0.16 -0.09 0.02 -0.01 0.18 -0.11 0.01 0 0.2 -0.11 0.2 -0.12 -0.2 0.12 -0.2 0.11 -0.01 0 -0.18 0.11 -0.02 0.01 -0.16 0.09 -0.05 0.03 -0.13 0.07 -0.07 0.04 -0.1 0.06 -0.11 0.06 -0.06 0.04 -0.14 0.07 -0.02 0.02c-3.91,2.16 -8,3.91 -13.83,1.85l-8.53 4.88 -0.11 0.06 -0.09 0.05 0.09 -0.05 0.11 -0.06c4.23,-2.24 6.29,2.46 2,4.92l-0.41 0.24 -0.2 0.11 -0.01 0.01 0.01 -0.01 0.2 -0.11 0.41 -0.24zm-0.62 0.36l-0.19 0.12c-8.15,5 -14.58,14.13 -26.73,21.31l-0.2 0.13 -0.2 0.11 -0.41 0.24 0.41 -0.24 0.2 -0.11 0.2 -0.13c7.8,-4.77 14,-13.35 25.16,-20.36l0.53 -0.33 0.05 -0.03 0.57 -0.35 0.02 -0.01 0.4 -0.23 0.19 -0.12zm-8.93 5.1l-0.54 0.31 -0.28 0.16 -0.54 0.31 -0.27 0.15 -0.55 0.32 -0.27 0.15c-14.87,8.61 -29.5,17.75 -42.53,30.38 9.88,-11.16 25.15,-20.36 40.89,-29.44l0.01 0 0.81 -0.47 0.82 -0.47 0.27 -0.15 0.55 -0.32 0.27 -0.15 0.54 -0.31 0.28 -0.16 0.54 -0.31 0.27 -0.16 -0.27 0.16zm0.27 -0.16l0.55 -0.31 -0.55 0.31zm11.47 -0.49c-4.36,2.49 -4.36,2.49 -4.36,2.49 -2.18,7.35 -4.92,13.49 -7.37,18.7 -2.43,5.14 -4.58,9.38 -5.66,13.01 2.7,-4.05 4.28,-8.5 5.66,-13.01 1.17,-3.83 2.21,-7.7 3.66,-11.42 0.99,-2.52 2.16,-4.96 3.71,-7.28 -2.93,3.71 -5.74,7.35 -8.42,10.93l-1.77 2.38c-4.36,5.88 -8.37,11.56 -12.05,17.04l-0.36 0.54 -0.26 0.38 -0.28 0.42 -0.33 0.49 -0.21 0.31 -0.39 0.61 -0.14 0.2 -0.46 0.71 -0.07 0.1 -1.06 1.62 -0.04 0.08c-2.54,3.94 -4.89,7.77 -7.07,11.5l-0.43 0.75 -0.05 0.08 -0.44 0.77 -0.04 0.06 -0.44 0.78 -0.03 0.05 -0.44 0.79 -0.03 0.04 -0.44 0.8 -0.02 0.02 -0.44 0.81 -0.02 0.02 -0.44 0.81 -0.01 0.01 -0.44 0.81 0 0.01 -0.44 0.82 -0.44 0.81 0 0.01 -0.43 0.81 -0.42 0.81 -0.42 0.81 -0.41 0.8 0.41 -0.8 0.42 -0.81 0.42 -0.81 0.43 -0.81 0 -0.01 0.44 -0.81 0.44 -0.82 0 -0.01 0.44 -0.81 0.01 -0.01 0.44 -0.81 0.02 -0.02 0.44 -0.81 0.02 -0.02 0.44 -0.8 0.03 -0.04 0.44 -0.79 0.03 -0.05 0.44 -0.78 0.04 -0.06 0.44 -0.77 0.05 -0.08 0.43 -0.75c2.25,-3.85 4.62,-7.72 7.07,-11.5l0.04 -0.08 1.06 -1.62 0.07 -0.1 0.46 -0.71 0.14 -0.2 0.39 -0.61 0.21 -0.31 0.33 -0.49 0.28 -0.42 0.26 -0.38 0.36 -0.54c3.48,-5.12 7.04,-9.98 10.49,-14.31l2.29 -2.82 2.93 -3.42c-1.99,3.92 -4.1,7.58 -6.27,11.11 -7,11.39 -14.65,21.35 -21.18,33.78l-0.01 0.02 -0.41 0.79 -0.41 0.8 0.41 -0.8 0.41 -0.79 0.01 -0.02c6.38,-12.29 14.84,-25.79 22.23,-38.65l1.56 -2.73c1.91,-3.39 3.74,-6.75 5.42,-10.01l0.01 0 0.4 -0.8 -0.4 0.8 -0.01 0c-1.31,2.61 -2.52,5.14 -3.65,7.63l-1.04 2.29c-1.19,2.65 -2.28,5.21 -3.34,7.69 -3.7,8.7 -6.76,16.25 -10.5,22.16l-0.01 0.01 -0.3 0.47 -0.01 0 -0.3 0.46 0.3 -0.46 0.01 0 0.3 -0.47 0.01 -0.01c5.51,-8.47 12.44,-21.79 19.59,-35.79l3.71 -7.28 4.36 -2.49zm19.62 -17.29c2.2,4.81 2.2,4.81 8.76,7.13l0.23 0.38 0.23 0.38 0.24 0.39 0.23 0.38 0.09 0.15 0.14 0.23 0.23 0.38 0.23 0.38 0.23 0.38 0.19 0.32 0.04 0.07 0.23 0.38 0.22 0.38 0.23 0.38 0.23 0.38 0.05 0.08 0.17 0.3 0.23 0.38 0.23 0.38 0.22 0.38 0.15 0.24 0.08 0.14 0.22 0.38 0.22 0.38 0.23 0.38 0.22 0.37 0.01 0.02 0.21 0.36 0.22 0.38 0.22 0.38 0.22 0.38 0.22 0.38 0.22 0.38 0.22 0.37 0.22 0.38 0.19 0.33 0.03 0.05 0.22 0.38 0.22 0.37 0.21 0.38 0.22 0.38 0.06 0.1 0.16 0.27 0.21 0.38 0.22 0.38 0.21 0.38 0.15 0.25 0.06 0.12 0.22 0.38 0.21 0.37 0.21 0.38 0.22 0.38 0.02 0.03 0.19 0.34 0.21 0.38 0.21 0.37 0.21 0.38 0.11 0.19 0.1 0.18 0.21 0.38 0.21 0.37 0.21 0.38 0.19 0.35 0.01 0.02 0.21 0.38 0.21 0.37 0.2 0.38 0.21 0.37 0.07 0.13 0.14 0.25 0.2 0.37 0.21 0.37 0.2 0.38 0.15 0.28 0.05 0.09 0.21 0.38 0.2 0.37 -1.51 2.98c-10.23,20.79 -15.35,44.19 -15.35,70.26l0 3.19c0,41.25 11.16,74.46 33.54,99.53 22.31,25.07 51.49,37.56 87.54,37.56 23.9,0 45.11,-5.7 63.47,-17.19 18.45,-11.49 32.62,-27.5 42.51,-48.04 9.9,-20.55 14.85,-43.77 14.85,-69.68l0 -3.19c0,-41.59 -11.16,-74.96 -33.46,-100.03 -22.39,-25.07 -51.65,-37.56 -87.87,-37.56 -23.4,0 -44.27,5.62 -62.47,16.93 -3.21,1.99 -6.29,4.12 -9.26,6.4l-0.3 -0.89 -0.7 -2.08 -0.7 -2.09 -0.71 -2.1 -0.7 -2.1 -0.71 -2.11 -0.72 -2.12 -0.71 -2.13 -0.72 -2.14 -0.72 -2.14c-8.75,-7.12 -17.48,-2.13 -26.2,2.86 -10.9,12.29 -21.82,12.47 -23.98,19.77 -2.2,-4.8 -8.76,-7.12 -10.96,-11.93 -2.19,-4.81 -8.75,-7.12 -19.7,-19.06 -28.44,-14.07 -74.35,-30.27 -98.39,-34.72 4.26,9.32 20.35,19.44 38.88,29.24l2.76 1.45c6.59,3.44 13.44,6.83 20.11,10.12l0.32 0.16 7.94 3.91c-28.4,-1.96 -65.53,1.08 -87.35,13.55 21.88,11.76 102.7,8 126.71,0.34 0,0 4.36,-2.49 6.56,2.31 6.56,2.32 13.12,4.63 15.31,9.44zm1214.58 244.82c-35.97,0 -65.32,-11.82 -87.95,-35.47 -22.56,-23.73 -33.88,-55.34 -33.88,-95l0 -8.38c0,-26.33 5.03,-49.89 15.09,-70.6 10.07,-20.71 24.15,-36.98 42.26,-48.63 18.11,-11.74 37.73,-17.61 58.86,-17.61 34.55,0 61.38,11.4 80.58,34.12 19.12,22.81 28.76,55.43 28.76,97.85l0 18.95 -180.1 0c0.67,26.17 8.3,47.3 22.97,63.39 14.67,16.1 33.29,24.15 55.93,24.15 16.01,0 29.6,-3.27 40.75,-9.81 11.15,-6.54 20.88,-15.17 29.26,-25.91l27.75 21.64c-22.3,34.21 -55.75,51.31 -100.28,51.31zm-5.62 -238.46c-18.36,0 -33.7,6.7 -46.2,20.12 -12.41,13.42 -20.12,32.2 -23.05,56.35l133.15 0 0 -3.44c-1.34,-23.23 -7.55,-41.17 -18.7,-53.92 -11.15,-12.74 -26.25,-19.11 -45.2,-19.11zm-339.24 -32.2l1.42 33.29c20.29,-25.58 46.87,-38.32 79.57,-38.32 56.18,0 84.52,31.69 85.03,95.08l0 175.58 -45.45 0 0 -175.75c-0.17,-19.11 -4.53,-33.28 -13.16,-42.42 -8.56,-9.14 -21.97,-13.75 -40.17,-13.75 -14.67,0 -27.67,3.94 -38.82,11.73 -11.07,7.89 -19.79,18.2 -25.99,30.94l0 189.25 -45.45 0 0 -265.63 43.02 0zm-115.71 265.63l-45.45 0 0 -265.63 45.45 0 0 265.63zm-49.14 -336.32c0,-7.37 2.27,-13.66 6.71,-18.78 4.53,-5.11 11.24,-7.63 20.04,-7.63 8.89,0 15.6,2.52 20.12,7.63 4.62,5.12 6.88,11.41 6.88,18.78 0,7.38 -2.26,13.59 -6.88,18.53 -4.52,4.95 -11.23,7.38 -20.12,7.38 -8.8,0 -15.51,-2.43 -20.04,-7.38 -4.44,-4.94 -6.71,-11.15 -6.71,-18.53zm-73.03 336.32l-45.44 0 0 -377.32 45.44 0 0 377.32zm-283.9 -265.63l1.42 33.29c20.29,-25.58 46.87,-38.32 79.57,-38.32 56.18,0 84.52,31.69 85.03,95.08l0 175.58 -45.45 0 0 -175.75c-0.17,-19.11 -4.53,-33.28 -13.16,-42.42 -8.56,-9.14 -21.97,-13.75 -40.17,-13.75 -14.67,0 -27.67,3.94 -38.82,11.73 -11.07,7.89 -19.79,18.2 -25.99,30.94l0 189.25 -45.45 0 0 -265.63 43.02 0zm1150.14 -409.69l61.88 -199.05 48.63 0 -106.82 306.55c-16.6,44.19 -42.85,66.24 -78.9,66.24l-8.56 -0.76 -16.93 -3.18 0 -36.81 12.24 1c15.43,0 27.42,-3.1 35.97,-9.3 8.64,-6.21 15.68,-17.61 21.3,-34.13l10.06 -26.91 -94.83 -262.7 49.63 0 66.33 199.05zm-133.24 -158.55c-6.88,-1.18 -14.34,-1.76 -22.3,-1.76 -29.85,0 -50.06,12.66 -60.71,38.06l0 188.83 -45.45 0 0 -265.63 44.19 0 0.76 30.6c14.92,-23.73 36.05,-35.63 63.39,-35.63 8.88,0 15.59,1.17 20.12,3.44l0 42.09zm-427.38 89.88c0,-26.07 5.12,-49.47 15.35,-70.26 10.23,-20.88 24.48,-36.9 42.76,-48.22 18.2,-11.31 39.07,-16.93 62.47,-16.93 36.22,0 65.48,12.49 87.87,37.56 22.3,25.07 33.46,58.44 33.46,100.03l0 3.19c0,25.91 -4.95,49.13 -14.85,69.68 -9.89,20.54 -24.06,36.55 -42.51,48.04 -18.36,11.49 -39.57,17.19 -63.47,17.19 -36.05,0 -65.23,-12.49 -87.54,-37.56 -22.38,-25.07 -33.54,-58.28 -33.54,-99.53l0 -3.19zm45.7 5.29c0,29.43 6.79,53.15 20.46,71.01 13.67,17.86 32.03,26.75 54.92,26.75 23.06,0 41.42,-9.05 55.01,-27.16 13.58,-18.12 20.37,-43.44 20.37,-76.06 0,-29.17 -6.88,-52.74 -20.71,-70.85 -13.84,-18.11 -32.2,-27.16 -55.17,-27.16 -22.39,0 -40.5,8.88 -54.25,26.74 -13.75,17.86 -20.63,43.44 -20.63,76.73zm-131.23 -200.07l0 64.4 49.56 0 0 35.21 -49.56 0 0 164.77c0,10.65 2.18,18.61 6.63,23.98 4.36,5.28 11.9,7.96 22.55,7.96 5.29,0 12.5,-1 21.64,-2.93l0 36.81c-11.99,3.18 -23.57,4.86 -34.88,4.86 -20.3,0 -35.64,-6.12 -45.95,-18.45 -10.32,-12.24 -15.43,-29.68 -15.43,-52.23l0 -164.77 -48.47 0 0 -35.21 48.47 0 0 -64.4 45.44 0zm-247.85 170.63c-40.42,-11.65 -69.85,-25.99 -88.29,-42.93 -18.45,-16.93 -27.67,-37.9 -27.67,-62.8 0,-28.17 11.32,-51.48 33.79,-69.93 22.55,-18.44 51.82,-27.67 87.79,-27.67 24.56,0 46.53,4.78 65.73,14.26 19.29,9.47 34.13,22.55 44.69,39.32 10.57,16.69 15.85,34.97 15.85,54.75l-47.37 0c0,-21.63 -6.88,-38.65 -20.63,-51.06 -13.75,-12.33 -33.2,-18.53 -58.27,-18.53 -23.23,0 -41.34,5.11 -54.34,15.34 -13.08,10.32 -19.53,24.49 -19.53,42.68 0,14.59 6.12,27 18.53,37.06 12.32,10.07 33.37,19.29 63.13,27.67 29.69,8.39 53,17.61 69.77,27.67 16.77,10.07 29.18,21.8 37.31,35.3 8.13,13.42 12.16,29.27 12.16,47.46 0,29.01 -11.32,52.24 -33.88,69.68 -22.64,17.44 -52.82,26.16 -90.64,26.16 -24.57,0 -47.54,-4.69 -68.84,-14.09 -21.21,-9.47 -37.65,-22.38 -49.22,-38.73 -11.57,-16.35 -17.27,-34.97 -17.27,-55.76l47.37 0c0,21.55 7.97,38.57 23.99,51.06 15.93,12.49 37.22,18.78 63.97,18.78 24.9,0 43.94,-5.11 57.19,-15.26 13.33,-10.14 19.95,-23.98 19.95,-41.42 0,-17.52 -6.2,-31.11 -18.44,-40.66 -12.25,-9.56 -34.55,-19.04 -66.83,-28.35zm-214.99 -170.63l0 64.4 49.56 0 0 35.21 -49.56 0 0 164.77c0,10.65 2.18,18.61 6.63,23.98 4.36,5.28 11.9,7.96 22.55,7.96 5.29,0 12.5,-1 21.64,-2.93l0 36.81c-11.99,3.18 -23.57,4.86 -34.88,4.86 -20.3,0 -35.64,-6.12 -45.95,-18.45 -10.32,-12.24 -15.43,-29.68 -15.43,-52.23l0 -164.77 -48.47 0 0 -35.21 48.47 0 0 -64.4 45.44 0zm-218 335.06c-35.97,0 -65.32,-11.82 -87.95,-35.47 -22.56,-23.73 -33.88,-55.34 -33.88,-95l0 -8.38c0,-26.33 5.03,-49.89 15.09,-70.6 10.07,-20.71 24.15,-36.98 42.26,-48.63 18.11,-11.74 37.73,-17.61 58.86,-17.61 34.55,0 61.38,11.4 80.58,34.12 19.12,22.81 28.76,55.43 28.76,97.85l0 18.95 -180.1 0c0.67,26.17 8.3,47.3 22.97,63.39 14.67,16.1 33.29,24.15 55.93,24.15 16.01,0 29.6,-3.27 40.75,-9.81 11.15,-6.54 20.88,-15.17 29.26,-25.91l27.75 21.64c-22.3,34.21 -55.75,51.31 -100.28,51.31zm-5.62 -238.46c-18.36,0 -33.7,6.7 -46.2,20.12 -12.41,13.42 -20.12,32.2 -23.05,56.35l133.15 0 0 -3.44c-1.34,-23.23 -7.55,-41.17 -18.7,-53.92 -11.15,-12.74 -26.25,-19.11 -45.2,-19.11zm-364.57 54.83l84.77 0c25.24,0 44.53,-5.95 57.94,-17.86 13.42,-11.82 20.12,-29.01 20.12,-51.48 0,-21.3 -6.7,-38.32 -20.12,-51.15 -13.41,-12.74 -31.86,-19.37 -55.25,-19.87l-87.46 0 0 140.36z"/>
    </g>
    <path fill="none" stroke="white" stroke-width="13.23" stroke-miterlimit="22.9256" d="M59.53 6.62l2063.76 0c29.21,0 52.91,23.7 52.91,52.92l0 1270c0,29.2 -23.7,52.9 -52.92,52.9l-2063.75 0.02c-29.21,-0.02 -52.91,-23.72 -52.91,-52.94l0 -1269.98c0,-29.22 23.7,-52.92 52.92,-52.92z"/>
   </g>
  </g>
 </g>
</svg>
