<?xml version="1.0" encoding="UTF-8"?>
<!DOCTYPE svg PUBLIC "-//W3C//DTD SVG 1.1//EN" "http://www.w3.org/Graphics/SVG/1.1/DTD/svg11.dtd">
<!-- Creator: CorelDRAW 2021.5 -->
<svg xmlns="http://www.w3.org/2000/svg" xml:space="preserve" width="100%" height="100%" version="1.1" shape-rendering="geometricPrecision" text-rendering="geometricPrecision" image-rendering="optimizeQuality" fill-rule="evenodd" clip-rule="evenodd"
viewBox="0 0 20999.91 13363.66"
 xmlns:xlink="http://www.w3.org/1999/xlink"
 xmlns:xodm="http://www.corel.com/coreldraw/odm/2003">
 <g id="Слой_x0020_1">
  <metadata id="CorelCorpID_0Corel-Layer"/>
  <g id="_2249848006144">
   <g id="logo">
    <g>
     <path id="PetStory_x0020_online" fill="white" d="M2195.57 4198.54l0 1345.53 -453.32 0 0 -3441.28 1268.86 0c376.74,0 671.13,96.01 884.9,288.81 213.77,192.03 320.27,446.88 320.27,763.97 0,333.93 -104,591.28 -312.96,771.96 -208.96,180.67 -508.26,271.01 -897.02,271.01l-810.73 0zm2661.92 6181.9l-0.87 -1.83 -0.96 -2.21 1.83 4.04zm-549.24 -1202.87l-0.1 -0.1 -1.83 -4.04 0.77 1.64 0.19 0.58 0.96 1.92 0.01 0zm4.52 9.72l5.39 12.22 5.96 12.99 5.96 12.99 5.96 13.08 5.96 12.99 5.96 13.08 5.96 13.08 5.96 12.99 5.96 13.08 5.96 13.08 0.58 1.35 2.02 -3.17 -1.15 -2.41 -1.15 -2.21 -0.1 -0.19 -1.15 -2.31 -1.15 -2.41 -1.25 -2.41 -1.15 -2.41 -1.15 -2.41 -2.41 -4.81 -1.15 -2.31 -1.15 -2.41 -1.15 -2.41 -1.25 -2.41 -1.15 -2.41 -0.48 -0.87 -0.67 -1.54 -1.15 -2.41 -1.25 -2.41 -1.15 -2.41 -1.15 -2.41 -1.15 -2.41 -0.67 -1.35 -0.48 -1.06 -1.25 -2.41 -1.15 -2.41 -1.15 -2.41 -1.15 -2.41 -1.15 -2.41 -0.96 -1.83 -0.19 -0.58 -1.15 -2.41 -1.15 -2.41 -1.15 -2.41 -1.25 -2.5 -1.15 -2.41 -1.15 -2.31 0 -0.1 -1.15 -2.41 -1.15 -2.41 -1.15 -2.41 -1.15 -2.41 -1.15 -2.41 -1.15 -2.5 -0.19 -0.38 -0.96 -2.02 -1.15 -2.41 -1.15 -2.41 -1.15 -2.41 -1.06 -2.5 -1.15 -2.41 -0.48 -0.87 -0.67 -1.54 -1.15 -2.41 -1.15 -2.5 -1.15 -2.41 -1.15 -2.41 -1.15 -2.41 -0.67 -1.44 -1.54 -3.46 -0.48 -0.87 -0.67 -1.54 -1.15 -2.5 -1.06 -2.41 -1.15 -2.41 4.52 9.72 -0.16 0.19zm884.32 1891.79l-4.04 -10.2 0 -0.1 -4.23 -10.1 -1.06 -2.79 -3.17 -7.41 -2.21 -5.48 -2.12 -4.81 -3.37 -8.18 -0.96 -2.12 -4.52 -10.39 -0.19 -0.48 -4.33 -9.91 -1.44 -3.27 -3.17 -7.12 -2.6 -5.96 -2.12 -4.52 -3.85 -8.75 -0.87 -1.73 -4.81 -10.58 -0.48 -0.87 -4.43 -9.62 -1.73 -3.75 -3.17 -6.83 -3.08 -6.54 -1.92 -4.14 -4.43 -9.24 -0.67 -1.44 -5.1 -10.68 -0.67 -1.44 -4.52 -9.33 -2.02 -4.14 -3.17 -6.64 -3.37 -6.93 -1.92 -3.85 -4.81 -9.81 -0.48 -0.96 -5.39 -10.87 -0.87 -1.83 -4.52 -9.14 -2.31 -4.62 -3.17 -6.25 -3.75 -7.6 -1.73 -3.37 -5.2 -10.39 -0.29 -0.58 -5.58 -11.06 -1.15 -2.31 -4.43 -8.75 -2.69 -5.2 -2.98 -5.87 -4.14 -8.08 -1.54 -3.08 -5.58 -10.97 -0.1 -0.19 -5.77 -11.16 -1.35 -2.79 -4.33 -8.37 -2.98 -5.68 -2.79 -5.58 -4.43 -8.66 -1.35 -2.6 -5.87 -11.35 -0.1 -0.29 -5.68 -10.97 -1.73 -3.27 -4.14 -8.08 -3.17 -6.25 -2.69 -5.2 -4.71 -9.14 -1.15 -2.21 -5.87 -11.45 -0.38 -0.77 -5.48 -10.68 -1.92 -3.75 -3.94 -7.79 -3.46 -6.73 -2.41 -4.81 -5 -9.72 -0.96 -1.83 -5.87 -11.54 -0.58 -1.25 -5.29 -10.39 -2.21 -4.23 -3.66 -7.31 -3.75 -7.31 -2.21 -4.43 -5.2 -10.29 -0.67 -1.35 -5.87 -11.74 -0.77 -1.64 -5 -10.1 -2.41 -4.71 -3.46 -7.02 -3.85 -7.79 -2.02 -3.94 -5.29 -10.97 -0.48 -0.87 -5.77 -11.83 -1.06 -2.12 -4.71 -9.72 -2.5 -5.29 -3.27 -6.64 -3.94 -8.37 -1.73 -3.46 -5.48 -11.54 -0.19 -0.38 -5.68 -12.03 -1.25 -2.6 -4.43 -9.33 -2.69 -5.77 -2.02 -4.23 5.87 12.99 5.96 12.99 5.96 13.08 5.96 12.99 5.96 13.08 5.96 12.99 5.96 13.08 5.96 13.08 5.96 13.08 5.96 13.08 5.96 13.08 5.96 13.08 6.06 13.08 5.96 13.18 5.96 13.18 6.06 13.18 6.06 13.18 5.96 13.18 6.06 13.28 6.06 13.28 6.06 13.28 6.06 13.28 6.16 13.37 6.06 13.28 6.16 13.47 6.06 13.37 6.16 13.47 6.16 13.47 6.16 13.47 6.16 13.57 6.25 13.57 6.16 13.66 6.25 13.57 6.25 13.76 6.25 13.66 6.35 13.76 6.25 13.85 6.35 13.76 6.35 13.95 6.35 13.85 6.35 14.05 6.45 13.95 6.35 14.14 6.45 14.05 6.45 14.14 6.54 14.24 6.54 14.24 6.45 14.33 6.64 14.33 6.54 14.43 4.43 9.62 22.61 4.52 0 -0.01zm-335.46 -689.6l-0.87 -2.02 0.87 2.02zm-5.97 -13.09l-0.48 -0.96 -5.48 -12.03 5.96 12.99zm669.02 689.42l-0.58 -1.15 -7.02 -13.37 -1.73 -3.46 -5.77 -11.06 -2.98 -5.87 -4.43 -8.66 -4.14 -8.27 -3.27 -6.35 -5.29 -10.68 -2.02 -4.04 -6.35 -13.08 -7.99 -16.35 -0.29 -0.77 -6.83 -13.95 -1.44 -3.17 -5.48 -11.64 -2.6 -5.58 -4.43 -9.33 -3.66 -7.99 -3.17 -6.93 -4.71 -10.39 -2.12 -4.52 -5.77 -12.89 -0.96 -2.02 -6.64 -15.01 -0.19 -0.38 -6.45 -14.72 -1.25 -2.79 -5.29 -12.22 -2.31 -5.29 -4.23 -9.91 -3.27 -7.7 -3.17 -7.41 -4.33 -10.2 -2.02 -5 -5.29 -12.7 -1.06 -2.5 -6.25 -15.2 -0.1 0 -6.16 -15.3 -1.06 -2.41 -5.2 -12.89 -1.92 -4.91 -4.14 -10.39 -2.98 -7.41 -3.08 -7.99 -3.94 -9.91 -2.12 -5.39 -4.81 -12.51 -1.15 -2.98 -5.77 -14.91 -0.19 -0.48 -5.87 -15.49 -0.77 -2.02 -5.1 -13.47 -1.73 -4.52 -4.14 -10.97 -2.6 -7.02 -3.08 -8.47 -3.56 -9.62 -2.21 -5.96 -4.43 -12.12 -1.25 -3.46 -5.39 -14.72 -0.29 -0.87 -5.58 -15.59 -0.67 -1.64 -5 -13.95 -1.44 -4.23 -4.04 -11.45 -2.41 -6.73 -3.17 -8.95 -3.27 -9.33 -2.21 -6.35 -4.14 -11.83 -1.25 -3.85 -5 -14.43 -0.48 -1.35 -5.39 -15.68 -0.48 -1.25 -4.91 -14.53 -1.35 -3.85 -4.04 -11.93 -2.12 -6.35 -3.17 -9.43 -2.98 -8.95 -2.31 -6.83 -3.85 -11.54 -1.44 -4.23 -4.71 -14.14 -0.58 -1.73 -5.29 -15.78 -0.29 -0.87 -4.91 -15.01 -1.15 -3.37 -4.04 -12.41 -2.02 -5.96 -3.17 -9.91 -2.89 -8.56 -2.31 -7.31 -3.66 -11.16 -1.54 -4.71 -4.52 -13.66 -0.67 -2.21 -5.2 -15.87 -0.1 -0.38 -5 -15.49 -0.96 -2.98 -4.14 -12.89 -1.83 -5.58 -3.37 -10.29 -2.6 -8.18 -2.5 -7.7 -3.46 -10.78 -1.64 -5.2 -4.33 -13.28 -0.87 -2.6 -5.1 -15.87c-105.44,-114.87 -189.33,-66.86 -273.32,-18.86 -146.71,142.29 -293.81,168.07 -125.36,305.07l6.64 10.97 3.17 5.2 3.46 5.77 6.35 10.49 0.29 0.38 6.54 10.97 2.79 4.71 3.66 6.16 5.96 10.01 0.48 0.96 6.45 10.87 2.5 4.23 3.94 6.64 5.48 9.43 0.77 1.44 6.35 10.78 2.21 3.85 4.04 7.02 5.1 8.95 1.06 1.83 6.25 10.87 1.83 3.37 4.23 7.41 4.81 8.47 1.35 2.31 6.06 10.78 1.54 2.89 4.43 7.89 4.43 8.08 1.54 2.69 5.96 10.78 1.25 2.41 4.62 8.27 4.14 7.6 1.73 3.17 5.77 10.78 1.06 1.92 4.81 8.75 3.75 7.12 1.92 3.56 5.68 10.78 0.77 1.44 4.91 9.24 3.46 6.64 2.21 4.04 5.58 10.68 0.48 1.06 5 9.62 3.17 6.16 2.41 4.52 5.39 10.68 0.29 0.58 5.2 10.1 2.89 5.68 2.5 4.91 5.39 10.68 0 0.19 5.29 10.49 2.6 5.29 2.69 5.39 5.1 10.29 0.1 0.29 5.2 10.68 2.31 4.81 2.89 5.77 4.81 9.91 0.38 0.77 5.1 10.68 2.02 4.33 2.98 6.25 4.43 9.43 0.58 1.25 5 10.58 1.83 3.94 3.17 6.73 4.14 8.95 0.77 1.64 4.91 10.68 1.54 3.46 3.27 7.12 3.85 8.56 0.96 2.12 4.81 10.58 1.35 3.08 3.37 7.6 3.56 8.08 1.15 2.5 4.71 10.68 1.06 2.6 3.56 8.08 3.27 7.6 1.35 2.98 4.52 10.68 0.87 2.12 3.75 8.56 2.98 7.22 1.44 3.37 4.52 10.68 0.67 1.73 3.75 8.95 2.79 6.83 1.64 3.85 4.33 10.68 0.48 1.25 3.85 9.43 2.6 6.35 1.73 4.33c-112.75,-40.89 -209.25,-113.43 -289.1,-217.71 -131.51,-171.82 -196.84,-400.02 -196.84,-683.16 0,-42.33 1.15,-83.31 3.46,-123.05l0.87 2.41 0.77 2.31 0.87 2.41 0.1 0.38 0.67 2.02 0.87 2.31 0.77 2.41 0.87 2.41 0.77 2.31 0.87 2.41 0.77 2.12 0 0.29 0.77 2.31 0.87 2.41 0.77 2.41 0.87 2.41 0.77 2.31 0.77 2.41 0.58 1.64 0.29 0.77 0.77 2.41 0.77 2.31 0.77 2.41 0.87 2.41 0.77 2.41 0.77 2.31 0.38 1.06 0.38 1.35 0.87 2.41 0.77 2.41 0.77 2.41 0.77 2.31 0.77 2.41 0.77 2.41 0.19 0.48 0.58 1.92 0.87 2.41 0.77 2.31 0.77 2.41 0.77 2.41 0.77 2.41 0.77 2.31 0 0.1 0.77 2.41 0.77 2.41 0.77 2.31 0.77 2.41 0.77 2.41 0.77 2.41 0.48 1.73 0.19 0.67 0.77 2.41 0.77 2.41 0.77 2.41 0.77 2.41 0.77 2.41 0.77 2.41 0.38 1.15 0.38 1.25 0.67 2.41 0.77 2.41 0.77 2.41 0.77 2.41 0.67 2.41 0.77 2.41 0.19 0.58 0.58 1.83 0.77 2.41 0.67 2.41 0.77 2.41 0.77 2.41 0.67 2.41 0.77 2.41c42.04,-24.05 125.93,-72.06 167.98,-96.01 62.82,-94.28 104.77,-118.33 209.82,-120.06l-4.52 -7.22 -4.33 -6.93 -0.19 -0.29 -4.43 -7.22 -4.14 -6.73 -0.29 -0.58 -4.43 -7.31 -3.94 -6.54 -0.48 -0.77 -4.43 -7.41 -3.75 -6.35 -0.58 -1.06 -4.33 -7.5 -3.56 -6.06 -0.77 -1.44 -4.33 -7.5 -3.27 -5.87 -0.96 -1.73 -4.23 -7.6 -3.17 -5.58 -1.06 -2.02 -4.23 -7.7 -2.98 -5.39 -1.25 -2.31 -4.14 -7.7 -2.79 -5.2 -1.35 -2.6 -4.14 -7.79 -2.6 -4.91 -1.54 -2.89 -4.14 -7.89 -2.41 -4.71 -1.64 -3.17 -4.04 -7.89 -2.31 -4.43 -1.73 -3.56 -4.04 -7.99 -2.12 -4.23 -1.92 -3.85 -3.94 -7.99 -1.92 -3.94 -2.02 -4.23 -3.94 -8.08 -1.83 -3.66 -2.12 -4.52 -3.94 -8.18 -1.64 -3.37 -2.31 -4.81 -3.85 -8.27 -3.85 -8.27 -3.85 -8.27 -1.35 -2.79 -2.5 -5.58 -3.85 -8.37 -1.25 -2.5 -2.6 -5.87 -3.75 -8.47 -1.06 -2.21 -2.79 -6.25 -3.75 -8.47 -0.87 -1.92 -2.89 -6.64 -3.75 -8.56 -0.77 -1.64 -2.98 -6.93 -3.66 -8.56 -0.67 -1.35 -3.08 -7.31 -7.41 -17.41 -3.66 -8.66 -0.38 -0.77 -3.27 -7.99 -3.66 -8.85 -0.19 -0.38 -3.46 -8.37 -3.56 -8.85 -0.1 -0.1 -3.56 -8.75 -3.56 -8.66 -0.1 -0.29 -3.56 -8.95 -7.22 -17.89 -3.27 -8.08 -0.29 -0.96 -3.56 -9.04 -3.08 -7.7 -0.48 -1.35 -3.56 -9.04 -2.89 -7.5 -0.58 -1.64 -3.56 -9.14c6.35,-9.14 12.89,-17.99 19.63,-26.75 132.28,-171.82 306.51,-257.25 521.92,-257.25 220.98,0 397.62,87.07 530.77,261.3 133.05,174.23 199.24,400.99 199.24,681.62 0,313.82 -65.32,557.42 -195.97,731.74 -90.34,120.35 -202.61,199.15 -336.53,236.38l0.03 -0.29zm-822.85 -1026.23l-0.77 -3.08 -0.77 -2.98 -0.77 -3.08 -0.77 -2.89 0 -0.19 -0.87 -2.98 -0.77 -3.08 -0.87 -3.08 -0.77 -2.69 -0.1 -0.38 -0.87 -3.08 -0.87 -3.08 -0.87 -3.08 -0.77 -2.5 -0.1 -0.58 -0.96 -3.08 -0.87 -3.08 -0.96 -3.08 -0.67 -2.41 -0.19 -0.67 -0.96 -3.08 -0.96 -3.17 -0.96 -3.08 -0.67 -2.31 -0.29 -0.77 -0.96 -3.17 -1.06 -3.08 -0.96 -3.17 -0.67 -2.12 -0.38 -0.96 -1.06 -3.17 -0.96 -3.08 -1.06 -3.17 -0.67 -1.92 -0.38 -1.25 -1.06 -3.17 -1.15 -3.08 -1.06 -3.17 -0.58 -1.83 -0.48 -1.35 -1.15 -3.17 -1.15 -3.17 -1.06 -3.17 -0.58 -1.64 -0.58 -1.54 -1.15 -3.17 -1.15 -3.17 -1.15 -3.17 -0.58 -1.54 -0.58 -1.64 -1.25 -3.27 -1.15 -3.17 -1.25 -3.17 -0.48 -1.35 -0.67 -1.92 -1.25 -3.17 -1.25 -3.17 -1.25 -3.27 -0.38 -1.15 -0.87 -2.02 -1.25 -3.27 -1.25 -3.17 -1.25 -3.27 -0.38 -0.96 -0.87 -2.31 -1.35 -3.27 -1.25 -3.17 -1.35 -3.27 -0.29 -0.77 -1.06 -2.5 -1.25 -3.27 -1.35 -3.27 -1.35 -3.27 -0.29 -0.58 -1.06 -2.69 -1.35 -3.27 -1.35 -3.27 -1.44 -3.27 -0.19 -0.48 -1.15 -2.79 -5.96 36.17 1.44 3.08 6.64 14.53 6.64 14.62 6.64 14.62 6.73 14.72 6.73 14.72 6.83 14.82 6.73 14.91 6.83 15.01 6.93 15.01 6.83 15.1 6.93 15.1 -0.01 -0.08zm-395.5 -866.14l-0.38 -0.77 -1.06 -2.41 -1.15 -2.5 -1.15 -2.41 -1.06 -2.5 -1.15 -2.41 5.96 12.99 -0.01 0.01zm-175 -383.19l0 -0.1c-41.75,-204.92 -245.23,-541.45 -372.61,-816.02l-1.73 -3.66 0 -0.1 -5.96 -12.99 5.96 12.99 0 0.1 1.73 3.66 372.61 816.02 0 0.1 1.92 4.23 1.83 3.94 1.64 3.66 0.1 0.1 1.54 3.37 1.44 3.17 1.35 2.98 1.25 2.79 1.15 2.5 1.06 2.31 1.06 2.21 0.87 1.92 0.77 1.83 0.77 1.54 0.67 1.44 0.58 1.35 0.58 1.15 0.38 0.96 0.48 0.96 0.29 0.77 0.29 0.67 0.19 0.38 0.1 0.1 0.19 0.48 0.19 0.38 0.29 0.58 0.1 0.19 0 0.1 0.1 0.19 -0.1 -0.19 0 -0.1 -0.1 -0.19 -0.29 -0.58 -0.19 -0.38 -0.19 -0.48 -0.1 -0.1 -0.19 -0.38 -0.29 -0.67 -0.29 -0.77 -0.48 -0.96 -0.38 -0.96 -0.58 -1.15 -0.58 -1.35 -0.67 -1.44 -0.77 -1.54 -0.77 -1.83 -0.87 -1.92 -1.06 -2.21 -1.06 -2.31 -1.15 -2.5 -1.25 -2.79 -1.35 -2.98 -1.44 -3.17 -1.54 -3.37 -0.1 -0.1 -1.64 -3.66 -1.83 -3.94 -1.92 -4.23zm357.21 -29.15c-189.91,-299.87 -317,-694.03 -465.16,-1134.46 -84.28,-68.59 -168.17,-20.59 -252.16,27.42 -146.71,142.29 -293.81,167.98 -125.36,305.07 189.91,299.87 358.94,670.07 464.87,1017.95 42.04,-23.96 125.93,-71.96 167.88,-96.01 62.82,-94.28 104.86,-118.24 209.92,-119.97l0.01 0zm-906.55 -1173.81c-41.85,-205.21 -245.61,-542.12 -373.09,-816.88l-1.35 -2.89 0 -0.1 -5.96 -12.99 5.96 12.99 0 0.1 1.35 2.89 373.09 816.88 5.39 11.93 7.79 17.12 7.89 17.22 -7.89 -17.22 -7.79 -17.12 -5.39 -11.93zm357.12 -29.25c-189.81,-299.87 -316.9,-694.03 -465.06,-1134.46 -84.28,-68.5 -168.26,-20.49 -252.16,27.51 -146.81,142.19 -314.98,121.7 -125.36,305.07 189.81,299.87 358.94,669.98 464.87,1017.86 41.95,-23.96 125.93,-71.96 146.71,-142.19 83.99,-48.01 125.93,-72.06 230.99,-73.79l0.01 0zm-80.82 1329.95c-151.14,-18.38 -268.51,-56.38 -412.72,-78.7l-41.46 -5.87 -0.48 -0.1 -0.1 0 -7.79 -0.96 7.79 0.96 0.1 0 0.48 0.1 38.39 4.33c139.11,15.2 240.03,19.72 404.06,76.1l2.89 1.06 8.85 3.08c63.11,22.32 63.11,22.32 0,0l-8.85 -3.08 -2.89 -1.06 -51.37 -18.09 -0.29 -0.1c-33,-16.26 -65.32,-31.36 -97.07,-45.22 -33.86,-14.82 -67.06,-28.28 -99.67,-41.08l-0.48 -0.29 -0.96 -0.38c-190.01,-74.27 -359.14,-119.49 -516.72,-204.24 156.43,55.22 312.86,110.25 516.72,204.24l0.96 0.38 0.48 0.29c42.62,19.63 86.97,40.79 134.01,64.07l-34.35 -22.99c-16.64,-10.87 -33.38,-21.45 -50.22,-31.65 -200.4,-121.6 -414.07,-198.76 -628.13,-274.38l-0.1 -0.1 -11.83 -4.14 0 -0.1 -11.83 -4.14 11.83 4.14 0 0.1 11.83 4.14 0.1 0.1c190.78,69.08 394.16,163.93 628.13,274.38l210.69 99.19 0 0.01zm-63.11 -22.22l-0.29 -0.1 -5.96 -2.12 -5.48 -1.92 -5.87 -2.02 -5.77 -2.02 -5.39 -1.92c-195.68,-68.4 -357.5,-121.89 -543.95,-159.22l-37.14 -7.12c21.45,7.6 42.62,14.53 63.69,21.07 157.68,48.97 308.72,73.98 517.39,145.27l5.39 1.92 5.77 2.02 5.87 2.02 5.48 1.92 6.25 2.21 0.01 0.01zm-20.78 70.23l-0.1 0 0 0.1 -0.19 0.1 -0.19 0.1 -0.29 0.1 -0.19 0.19 -0.1 0 -0.19 0.19 -0.19 0 -0.29 0.19 -0.1 0c-8.37,4.04 -42.91,17.22 -61.28,-23.19 -315.27,5.2 -588.49,-13.66 -840.65,13.76 129.4,23.96 265.43,25.88 404.26,18.18l2.12 -0.1 0.19 -0.1c96.88,-5.58 195.11,-15.49 293.52,-26.17l0.29 -0.1 11.54 -1.15 0.19 -0.1 11.64 -1.25 11.83 -1.25 -11.83 1.25 -11.64 1.25 -0.19 0.1 -11.54 1.15 -0.29 0.1c-104.67,10.78 -201.94,17.61 -293.52,26.17l-0.19 0.1 -2.12 0.1c-114.58,10.78 -220.22,24.15 -319.98,50.41 132.96,-2.21 282.75,-13.95 438.7,-29.34 90.53,-8.85 183.18,-18.95 275.73,-29.05 -95.63,1.54 -186.83,12.7 -275.73,29.05 -106.4,19.63 -209.44,46.76 -312.48,73.89 252.06,-27.51 441.1,-77.16 651.22,-80.62l40.21 -23.09 0.1 0 0.29 -0.19 0.19 0 0.19 -0.19 0.1 0 0.19 -0.19 0.29 -0.1 0.19 -0.1 0.19 -0.1 0 -0.1 0.1 0zm-42.04 24.05c-147,25.69 -294.1,51.37 -441.1,77.16 147,-25.78 294.1,-51.47 441.1,-77.16zm168.84 253.6l-3.94 2.31 -1.92 1.06 -0.1 0.1 -1.83 1.15 -3.85 2.21 -0.19 0.1 -5.48 3.37 -0.48 0.29 -5.1 3.17c-106.5,66.38 -225.7,175.48 -333.74,246.48l-1.44 0.87 -5.68 3.75 -5 3.27 -0.77 0.38 -5.29 3.46 -0.48 0.19 -5.58 3.46 -0.19 0.19 -5.77 3.46 -0.1 0 -5.77 3.46 -0.1 0.1 -5.87 3.37 5.87 -3.37 0.1 -0.1 5.77 -3.46 0.1 0 5.77 -3.46 0.19 -0.19 5.58 -3.46 0.48 -0.19 5.29 -3.46 0.77 -0.38 5 -3.27 5.68 -3.75 1.44 -0.87c105.35,-70.33 198.38,-167.78 306.7,-231.76l2.02 -1.15 5.87 -3.37 -5.87 3.37 -2.02 1.15 -34.06 19.53 -5.29 2.98 -2.6 1.54 -5.2 2.98 -2.69 1.54 -5.2 2.98 -2.6 1.44 -5.29 3.08 -2.6 1.44 -7.89 4.52 -7.79 4.52 -0.1 0 -448.51 256.39 -7.89 4.52 7.89 -4.52c164.32,-95.82 348.65,-256.58 552.89,-374.53l3.27 -1.83 2.41 -1.35 -2.41 1.35 -3.27 1.83 -36.27 20.78c-230.99,73.79 -503.73,288.04 -650.45,430.33 126.13,44.54 377.99,-99.48 566.75,-265.72 -125.64,188.47 -272.07,447.26 -355.77,611.87 189.04,-49.74 523.94,-591.38 544.52,-778.21 41.95,-23.96 41.95,-23.96 83.99,-48.01l69.94 -40.02 0.19 -0.19 1.35 -0.67 0.58 -0.38 1.06 -0.58 0.96 -0.58 0.67 -0.38 1.25 -0.67 0.48 -0.29 1.54 -0.87 0.19 -0.1 1.73 -1.06 0.1 0 1.92 -1.06 1.92 -1.15 -1.92 1.15 -1.92 1.06 -0.1 0 -1.73 1.06 -0.19 0.1 -1.54 0.87 -0.48 0.29 -1.25 0.67 -0.67 0.38 -0.96 0.58 -1.06 0.58 -0.58 0.38 -1.35 0.67 -0.19 0.19c-37.62,20.78 -76.96,37.62 -133.05,17.8l-82.06 46.95 -1.06 0.58 -0.87 0.48 0.87 -0.48 1.06 -0.58c40.7,-21.55 60.51,23.67 19.24,47.33l-3.94 2.31 -1.92 1.06 -0.1 0.1 0.1 -0.1 1.92 -1.06 3.94 -2.31 0.02 0.01zm-5.96 3.46l-1.83 1.15c-78.41,48.1 -140.27,135.94 -257.16,205.01l-1.92 1.25 -1.92 1.06 -3.94 2.31 3.94 -2.31 1.92 -1.06 1.92 -1.25c75.04,-45.89 134.69,-128.43 242.05,-195.88l5.1 -3.17 0.48 -0.29 5.48 -3.37 0.19 -0.1 3.85 -2.21 1.83 -1.15 0.01 0.01zm-85.91 49.07l-5.2 2.98 -2.69 1.54 -5.2 2.98 -2.6 1.44 -5.29 3.08 -2.6 1.44c-143.06,82.83 -283.81,170.77 -409.16,292.27 95.05,-107.37 241.96,-195.88 393.39,-283.23l0.1 0 7.79 -4.52 7.89 -4.52 2.6 -1.44 5.29 -3.08 2.6 -1.44 5.2 -2.98 2.69 -1.54 5.2 -2.98 2.6 -1.54 -2.6 1.54 -0.01 0zm2.59 -1.54l5.29 -2.98 -5.29 2.98zm110.35 -4.71c-41.95,23.96 -41.95,23.96 -41.95,23.96 -20.97,70.71 -47.33,129.78 -70.9,179.9 -23.38,49.45 -44.06,90.24 -54.45,125.16 25.98,-38.96 41.18,-81.77 54.45,-125.16 11.26,-36.85 21.26,-74.08 35.21,-109.87 9.52,-24.24 20.78,-47.72 35.69,-70.04 -28.19,35.69 -55.22,70.71 -81.01,105.15l-17.03 22.9c-41.95,56.57 -80.52,111.21 -115.93,163.93l-3.46 5.2 -2.5 3.66 -2.69 4.04 -3.17 4.71 -2.02 2.98 -3.75 5.87 -1.35 1.92 -4.43 6.83 -0.67 0.96 -10.2 15.59 -0.38 0.77c-24.44,37.91 -47.04,74.75 -68.02,110.64l-4.14 7.22 -0.48 0.77 -4.23 7.41 -0.38 0.58 -4.23 7.5 -0.29 0.48 -4.23 7.6 -0.29 0.38 -4.23 7.7 -0.19 0.19 -4.23 7.79 -0.19 0.19 -4.23 7.79 -0.1 0.1 -4.23 7.79 0 0.1 -4.23 7.89 -4.23 7.79 0 0.1 -4.14 7.79 -4.04 7.79 -4.04 7.79 -3.94 7.7 3.94 -7.7 4.04 -7.79 4.04 -7.79 4.14 -7.79 0 -0.1 4.23 -7.79 4.23 -7.89 0 -0.1 4.23 -7.79 0.1 -0.1 4.23 -7.79 0.19 -0.19 4.23 -7.79 0.19 -0.19 4.23 -7.7 0.29 -0.38 4.23 -7.6 0.29 -0.48 4.23 -7.5 0.38 -0.58 4.23 -7.41 0.48 -0.77 4.14 -7.22c21.65,-37.04 44.45,-74.27 68.02,-110.64l0.38 -0.77 10.2 -15.59 0.67 -0.96 4.43 -6.83 1.35 -1.92 3.75 -5.87 2.02 -2.98 3.17 -4.71 2.69 -4.04 2.5 -3.66 3.46 -5.2c33.48,-49.26 67.73,-96.01 100.92,-137.67l22.03 -27.13 28.19 -32.9c-19.14,37.71 -39.44,72.92 -60.32,106.88 -67.34,109.58 -140.94,205.4 -203.76,324.98l-0.1 0.19 -3.94 7.6 -3.94 7.7 3.94 -7.7 3.94 -7.6 0.1 -0.19c61.38,-118.24 142.77,-248.11 213.87,-371.84l15.01 -26.26c18.38,-32.61 35.98,-64.94 52.14,-96.3l0.1 0 3.85 -7.7 -3.85 7.7 -0.1 0c-12.6,25.11 -24.24,49.45 -35.12,73.41l-10.01 22.03c-11.45,25.49 -21.93,50.12 -32.13,73.98 -35.6,83.7 -65.04,156.33 -101.02,213.19l-0.1 0.1 -2.89 4.52 -0.1 0 -2.89 4.43 2.89 -4.43 0.1 0 2.89 -4.52 0.1 -0.1c53.01,-81.49 119.68,-209.63 188.47,-344.32l35.69 -70.04 41.95 -23.96 0.01 0.02zm188.76 -166.34c21.17,46.28 21.17,46.28 84.28,68.59l2.21 3.66 2.21 3.66 2.31 3.75 2.21 3.66 0.87 1.44 1.35 2.21 2.21 3.66 2.21 3.66 2.21 3.66 1.83 3.08 0.38 0.67 2.21 3.66 2.12 3.66 2.21 3.66 2.21 3.66 0.48 0.77 1.64 2.89 2.21 3.66 2.21 3.66 2.12 3.66 1.44 2.31 0.77 1.35 2.12 3.66 2.12 3.66 2.21 3.66 2.12 3.56 0.1 0.19 2.02 3.46 2.12 3.66 2.12 3.66 2.12 3.66 2.12 3.66 2.12 3.66 2.12 3.56 2.12 3.66 1.83 3.17 0.29 0.48 2.12 3.66 2.12 3.56 2.02 3.66 2.12 3.66 0.58 0.96 1.54 2.6 2.02 3.66 2.12 3.66 2.02 3.66 1.44 2.41 0.58 1.15 2.12 3.66 2.02 3.56 2.02 3.66 2.12 3.66 0.19 0.29 1.83 3.27 2.02 3.66 2.02 3.56 2.02 3.66 1.06 1.83 0.96 1.73 2.02 3.66 2.02 3.56 2.02 3.66 1.83 3.37 0.1 0.19 2.02 3.66 2.02 3.56 1.92 3.66 2.02 3.56 0.67 1.25 1.35 2.41 1.92 3.56 2.02 3.56 1.92 3.66 1.44 2.69 0.48 0.87 2.02 3.66 1.92 3.56 -14.53 28.67c-98.42,200.01 -147.68,425.13 -147.68,675.94l0 30.69c0,396.85 107.37,716.35 322.67,957.54 214.64,241.19 495.36,361.35 842.19,361.35 229.93,0 433.98,-54.84 610.62,-165.38 177.5,-110.54 313.82,-264.57 408.97,-462.17 95.24,-197.7 142.87,-421.09 142.87,-670.36l0 -30.69c0,-400.12 -107.37,-721.16 -321.9,-962.35 -215.4,-241.19 -496.9,-361.35 -845.36,-361.35 -225.12,0 -425.9,54.07 -601,162.88 -30.88,19.14 -60.51,39.64 -89.09,61.57l-2.89 -8.56 -6.73 -20.01 -6.73 -20.11 -6.83 -20.2 -6.73 -20.2 -6.83 -20.3 -6.93 -20.4 -6.83 -20.49 -6.93 -20.59 -6.93 -20.59c-84.18,-68.5 -168.17,-20.49 -252.06,27.51 -104.86,118.24 -209.92,119.97 -230.7,190.2 -21.17,-46.18 -84.28,-68.5 -105.44,-114.77 -21.07,-46.28 -84.18,-68.5 -189.53,-183.37 -273.61,-135.36 -715.29,-291.22 -946.57,-334.03 40.98,89.66 195.78,187.02 374.05,281.31l26.55 13.95c63.4,33.09 129.3,65.71 193.47,97.36l3.08 1.54 76.39 37.62c-273.22,-18.86 -630.44,10.39 -840.36,130.36 210.5,113.14 988.03,76.96 1219.02,3.27 0,0 41.95,-23.96 63.11,22.22 63.11,22.32 126.22,44.54 147.29,90.82l-0.02 -0.16zm11684.96 2355.31c-346.05,0 -628.42,-113.72 -846.13,-341.24 -217.04,-228.3 -325.95,-532.4 -325.95,-913.96l0 -80.62c0,-253.31 48.39,-479.97 145.17,-679.21 96.88,-199.24 232.34,-355.77 406.57,-467.85 174.23,-112.95 362.98,-169.42 566.27,-169.42 332.39,0 590.51,109.67 775.23,328.25 183.95,219.45 276.69,533.27 276.69,941.37l0 182.31 -1732.67 0c6.45,251.77 79.85,455.05 220.98,609.85 141.13,154.89 320.27,232.34 538.08,232.34 154.03,0 284.77,-31.46 392.04,-94.38 107.27,-62.92 200.88,-145.94 281.5,-249.27l266.97 208.19c-214.54,329.12 -536.35,493.63 -964.75,493.63l0 0.01zm-54.06 -2294.13c-176.63,0 -324.21,64.46 -444.47,193.57 -119.39,129.11 -193.57,309.78 -221.75,542.12l1280.98 0 0 -33.09c-12.89,-223.49 -72.64,-396.08 -179.9,-518.74 -107.27,-122.57 -252.54,-183.85 -434.85,-183.85l-0.01 -0.01zm-3263.69 -309.78l13.66 320.27c195.2,-246.09 450.92,-368.66 765.51,-368.66 540.48,0 813.13,304.88 818.04,914.72l0 1689.18 -437.26 0 0 -1690.82c-1.64,-183.85 -43.58,-320.17 -126.61,-408.11 -82.35,-87.93 -211.36,-132.28 -386.46,-132.28 -141.13,0 -266.2,37.91 -373.47,112.85 -106.5,75.91 -190.39,175.09 -250.04,297.66l0 1820.7 -437.26 0 0 -2555.52 413.88 0 0.01 0.01zm-1113.2 2555.52l-437.26 0 0 -2555.52 437.26 0 0 2555.52zm-472.75 -3235.6c0,-70.9 21.84,-131.42 64.55,-180.67 43.58,-49.16 108.14,-73.41 192.8,-73.41 85.53,0 150.08,24.24 193.57,73.41 44.45,49.26 66.19,109.77 66.19,180.67 0,71 -21.74,130.74 -66.19,178.27 -43.49,47.62 -108.04,71 -193.57,71 -84.66,0 -149.22,-23.38 -192.8,-71 -42.72,-47.53 -64.55,-107.27 -64.55,-178.27zm-702.59 3235.6l-437.16 0 0 -3630.04 437.16 0 0 3630.04zm-2731.29 -2555.52l13.66 320.27c195.2,-246.09 450.92,-368.66 765.51,-368.66 540.48,0 813.13,304.88 818.04,914.72l0 1689.18 -437.26 0 0 -1690.82c-1.64,-183.85 -43.58,-320.17 -126.61,-408.11 -82.35,-87.93 -211.36,-132.28 -386.46,-132.28 -141.13,0 -266.2,37.91 -373.47,112.85 -106.5,75.91 -190.39,175.09 -250.04,297.66l0 1820.7 -437.26 0 0 -2555.52 413.88 0 0.01 0.01zm11065.02 -3941.46l595.32 -1914.98 467.85 0 -1027.67 2949.19c-159.7,425.13 -412.24,637.27 -759.06,637.27l-82.35 -7.31 -162.88 -30.59 0 -354.13 117.76 9.62c148.45,0 263.8,-29.82 346.05,-89.47 83.12,-59.74 150.85,-169.42 204.92,-328.35l96.78 -258.89 -912.32 -2527.33 477.47 0 638.13 1914.98 0 -0.01zm-1281.85 -1525.34c-66.19,-11.35 -137.96,-16.93 -214.54,-16.93 -287.17,0 -481.61,121.8 -584.07,366.16l0 1816.65 -437.26 0 0 -2555.52 425.13 0 7.31 294.39c143.54,-228.3 346.82,-342.78 609.85,-342.78 85.43,0 149.98,11.26 193.57,33.09l0 404.93 0.01 0.01zm-4111.64 864.7c0,-250.81 49.26,-475.93 147.68,-675.94 98.42,-200.88 235.51,-355 411.38,-463.9 175.09,-108.81 375.88,-162.88 601,-162.88 348.46,0 629.96,120.16 845.36,361.35 214.54,241.19 321.9,562.23 321.9,962.35l0 30.69c0,249.27 -47.62,472.66 -142.87,670.36 -95.15,197.61 -231.47,351.63 -408.97,462.17 -176.63,110.54 -380.69,165.38 -610.62,165.38 -346.82,0 -627.55,-120.16 -842.19,-361.35 -215.31,-241.19 -322.67,-560.69 -322.67,-957.54l0 -30.69zm439.66 50.89c0,283.13 65.32,511.33 196.84,683.16 131.51,171.82 308.15,257.35 528.36,257.35 221.85,0 398.48,-87.07 529.23,-261.3 130.65,-174.32 195.97,-417.92 195.97,-731.74 0,-280.63 -66.19,-507.39 -199.24,-681.62 -133.15,-174.23 -309.78,-261.3 -530.77,-261.3 -215.4,0 -389.63,85.43 -521.92,257.25 -132.28,171.82 -198.47,417.92 -198.47,738.19l0 0.01zm-1262.51 -1924.79l0 619.57 476.8 0 0 338.74 -476.8 0 0 1585.18c0,102.46 20.97,179.04 63.78,230.7 41.95,50.8 114.48,76.58 216.94,76.58 50.89,0 120.26,-9.62 208.19,-28.19l0 354.13c-115.35,30.59 -226.76,46.76 -335.57,46.76 -195.3,0 -342.88,-58.88 -442.07,-177.5 -99.28,-117.76 -148.45,-285.54 -148.45,-502.48l0 -1585.18 -466.31 0 0 -338.74 466.31 0 0 -619.57 437.16 0 0.02 0zm-2384.46 1641.56c-388.86,-112.08 -672,-250.04 -849.4,-413.01 -177.5,-162.88 -266.2,-364.62 -266.2,-604.17 0,-271.01 108.9,-495.27 325.08,-672.77 216.94,-177.4 498.54,-266.2 844.59,-266.2 236.28,0 447.65,45.99 632.36,137.19 185.58,91.11 328.35,216.94 429.94,378.28 101.69,160.57 152.49,336.43 152.49,526.73l-455.73 0c0,-208.09 -66.19,-371.84 -198.47,-491.23 -132.28,-118.62 -319.4,-178.27 -560.59,-178.27 -223.49,0 -397.71,49.16 -522.78,147.58 -125.84,99.28 -187.89,235.61 -187.89,410.61 0,140.36 58.88,259.76 178.27,356.54 118.53,96.88 321.04,185.58 607.35,266.2 285.64,80.72 509.89,169.42 671.23,266.2 161.34,96.88 280.73,209.73 358.94,339.61 78.22,129.11 116.99,281.59 116.99,456.59 0,279.09 -108.9,502.58 -325.95,670.36 -217.81,167.78 -508.16,251.67 -872.01,251.67 -236.38,0 -457.36,-45.12 -662.28,-135.55 -204.05,-91.11 -362.21,-215.31 -473.53,-372.61 -111.31,-157.3 -166.15,-336.43 -166.15,-536.44l455.73 0c0,207.32 76.68,371.07 230.8,491.23 153.26,120.16 358.08,180.67 615.43,180.67 239.55,0 422.73,-49.16 550.2,-146.81 128.24,-97.55 191.93,-230.7 191.93,-398.48 0,-168.55 -59.65,-299.3 -177.4,-391.17 -117.85,-91.97 -332.39,-183.18 -642.94,-272.74l-0.01 -0.01zm-2068.33 -1641.56l0 619.57 476.8 0 0 338.74 -476.8 0 0 1585.18c0,102.46 20.97,179.04 63.78,230.7 41.95,50.8 114.48,76.58 216.94,76.58 50.89,0 120.26,-9.62 208.19,-28.19l0 354.13c-115.35,30.59 -226.76,46.76 -335.57,46.76 -195.3,0 -342.88,-58.88 -442.07,-177.5 -99.28,-117.76 -148.45,-285.54 -148.45,-502.48l0 -1585.18 -466.31 0 0 -338.74 466.31 0 0 -619.57 437.16 0 0.02 0zm-2097.29 3223.47c-346.05,0 -628.42,-113.72 -846.13,-341.24 -217.04,-228.3 -325.95,-532.4 -325.95,-913.96l0 -80.62c0,-253.31 48.39,-479.97 145.17,-679.21 96.88,-199.24 232.34,-355.77 406.57,-467.85 174.23,-112.95 362.98,-169.42 566.27,-169.42 332.39,0 590.51,109.67 775.23,328.25 183.95,219.45 276.69,533.27 276.69,941.37l0 182.31 -1732.67 0c6.45,251.77 79.85,455.05 220.98,609.85 141.13,154.89 320.27,232.34 538.08,232.34 154.03,0 284.77,-31.46 392.04,-94.38 107.27,-62.92 200.88,-145.94 281.5,-249.27l266.97 208.19c-214.54,329.12 -536.35,493.63 -964.75,493.63l0 0.01zm-54.07 -2294.12c-176.63,0 -324.21,64.46 -444.47,193.57 -119.39,129.11 -193.57,309.78 -221.75,542.12l1280.98 0 0 -33.09c-12.89,-223.49 -72.64,-396.08 -179.9,-518.74 -107.27,-122.57 -252.54,-183.85 -434.85,-183.85l-0.01 -0.01zm-3507.37 527.5l815.54 0c242.82,0 428.4,-57.24 557.42,-171.82 129.11,-113.72 193.57,-279.09 193.57,-495.27 0,-204.92 -64.46,-368.66 -193.57,-492.09 -129.01,-122.57 -306.51,-186.35 -531.54,-191.16l-841.42 0 0 1350.34z"/>
    </g>
    <path fill="none" stroke="white" stroke-width="127.28" stroke-miterlimit="22.9256" d="M572.67 63.64l19854.57 0c281.02,0 509.03,228.01 509.03,509.12l0 12218.14c0,280.92 -228.01,508.93 -509.12,508.93l-19854.48 0.19c-281.02,-0.19 -509.03,-228.2 -509.03,-509.31l0 -12217.95c0,-281.11 228.01,-509.12 509.12,-509.12l-0.09 0z"/>
   </g>
  </g>
 </g>
</svg>
