<?xml version="1.0" encoding="UTF-8"?>
<!DOCTYPE svg PUBLIC "-//W3C//DTD SVG 1.1//EN" "http://www.w3.org/Graphics/SVG/1.1/DTD/svg11.dtd">
<!-- Creator: CorelDRAW 2021.5 -->
<svg xmlns="http://www.w3.org/2000/svg" xml:space="preserve" width="100%" height="100%" version="1.1" shape-rendering="geometricPrecision" text-rendering="geometricPrecision" image-rendering="optimizeQuality" fill-rule="evenodd" clip-rule="evenodd"
viewBox="0 0 687.92 5503.3"
 xmlns:xlink="http://www.w3.org/1999/xlink"
 xmlns:xodm="http://www.corel.com/coreldraw/odm/2003">
 <g id="Слой_x0020_1">
  <metadata id="CorelCorpID_0Corel-Layer"/>
  <g id="_2285051394528">
   <path fill="#4B9200" fill-rule="nonzero" d="M687.92 1031.86c0,-189.96 -154,-343.96 -343.96,-343.96 -189.96,0 -343.96,154 -343.96,343.96 0,189.96 154,343.96 343.96,343.96 189.96,0 343.96,-154 343.96,-343.96z"/>
   <path fill="white" d="M449.79 892.96l-42.33 0c-29.15,0 -28.22,10.4 -28.22,29.41l0 30.11 70.55 0 -14.11 79.38 -56.44 0 0 211.67 -98.78 0 0 -211.67 -42.33 0 0 -79.38 42.33 0 0 -37.38c0,-59.51 31.68,-94.91 106.54,-94.91l62.79 0 0 72.77z"/>
  </g>
  <g id="_2285051364048">
   <path fill="#C4C4C4" fill-rule="nonzero" fill-opacity="0.501961" d="M687.92 4471.42c0,-189.96 -154,-343.96 -343.96,-343.96 -189.96,0 -343.96,154 -343.96,343.96 0,189.96 154,343.96 343.96,343.96 189.96,0 343.96,-154 343.96,-343.96z"/>
   <path fill="white" d="M256.69 4261.03c-22.53,1.03 -37.91,4.6 -51.38,9.84 -13.92,5.4 -25.72,12.64 -37.48,24.41 -11.78,11.77 -19.01,23.57 -24.42,37.49 -5.23,13.47 -8.81,28.85 -9.84,51.38 -1.03,22.58 -1.28,29.78 -1.28,87.27 0,57.49 0.25,64.69 1.28,87.27 1.03,22.53 4.61,37.91 9.84,51.37 5.41,13.92 12.64,25.73 24.42,37.5 11.76,11.77 23.56,19 37.48,24.41 13.47,5.24 28.85,8.81 51.38,9.84 22.58,1.03 29.79,1.28 87.27,1.28 57.49,0 64.7,-0.25 87.28,-1.28 22.52,-1.03 37.91,-4.6 51.38,-9.84 13.91,-5.41 25.72,-12.64 37.49,-24.41 11.76,-11.77 18.99,-23.58 24.41,-37.5 5.23,-13.46 8.81,-28.84 9.84,-51.37 1.03,-22.58 1.27,-29.78 1.27,-87.27 0,-57.49 -0.24,-64.69 -1.27,-87.27 -1.03,-22.53 -4.61,-37.91 -9.84,-51.38 -5.42,-13.92 -12.65,-25.72 -24.41,-37.49 -11.77,-11.77 -23.58,-19.01 -37.49,-24.41 -13.47,-5.24 -28.86,-8.81 -51.38,-9.84 -22.58,-1.03 -29.79,-1.28 -87.28,-1.28 -57.48,0 -64.69,0.25 -87.27,1.28zm1.74 382.68c-20.64,-0.94 -31.84,-4.38 -39.3,-7.29 -9.88,-3.84 -16.93,-8.43 -24.34,-15.83 -7.41,-7.41 -11.99,-14.46 -15.84,-24.34 -2.89,-7.46 -6.34,-18.66 -7.28,-39.3 -1.02,-22.32 -1.24,-29.02 -1.24,-85.53 0,-56.52 0.22,-63.21 1.24,-85.54 0.94,-20.63 4.39,-31.84 7.28,-39.3 3.85,-9.88 8.43,-16.93 15.84,-24.34 7.41,-7.4 14.46,-11.99 24.34,-15.83 7.46,-2.9 18.66,-6.34 39.3,-7.29 22.32,-1.01 29.02,-1.23 85.53,-1.23 56.52,0 63.21,0.22 85.54,1.23 20.63,0.95 31.84,4.39 39.3,7.29 9.88,3.84 16.93,8.43 24.34,15.83 7.41,7.41 11.99,14.46 15.83,24.34 2.9,7.46 6.35,18.67 7.29,39.3 1.02,22.33 1.23,29.02 1.23,85.54 0,56.51 -0.21,63.21 -1.23,85.53 -0.94,20.64 -4.39,31.84 -7.29,39.3 -3.84,9.88 -8.42,16.93 -15.83,24.34 -7.41,7.4 -14.46,11.99 -24.34,15.83 -7.46,2.91 -18.67,6.35 -39.3,7.29 -22.32,1.02 -29.01,1.23 -85.54,1.23 -56.51,0 -63.21,-0.21 -85.53,-1.23zm173.12 -285.28c0,14.02 11.37,25.4 25.4,25.4 14.03,0 25.4,-11.38 25.4,-25.4 0,-14.03 -11.37,-25.4 -25.4,-25.4 -14.03,0 -25.4,11.37 -25.4,25.4zm-196.29 113c0,60.03 48.67,108.69 108.7,108.69 60.03,0 108.69,-48.66 108.69,-108.69 0,-60.04 -48.66,-108.7 -108.69,-108.7 -60.03,0 -108.7,48.66 -108.7,108.7zm38.16 -0.01c0,-38.97 31.59,-70.55 70.56,-70.55 38.96,0 70.55,31.58 70.55,70.55 0,38.97 -31.59,70.56 -70.55,70.56 -38.97,0 -70.56,-31.59 -70.56,-70.56z"/>
  </g>
  <g id="_2285051377776">
   <path fill="#C4C4C4" fill-rule="nonzero" fill-opacity="0.501961" d="M687.92 3095.61c0,-189.96 -154,-343.96 -343.96,-343.96 -189.96,0 -343.96,154 -343.96,343.96 0,189.96 154,343.96 343.96,343.96 189.96,0 343.96,-154 343.96,-343.96z"/>
   <path fill="white" d="M555.63 2954.25c-15.57,7.43 -32.31,12.46 -49.88,14.72 17.93,-11.57 31.7,-29.89 38.18,-51.73 -16.78,10.71 -35.37,18.5 -55.15,22.69 -15.84,-18.18 -38.41,-29.53 -63.39,-29.53 -47.97,0 -86.85,41.87 -86.85,93.51 0,7.33 0.76,14.47 2.24,21.31 -72.18,-3.9 -136.17,-41.13 -179.01,-97.71 -7.48,13.82 -11.76,29.88 -11.76,47.02 0,32.44 15.33,61.06 38.64,77.83 -14.24,-0.49 -27.64,-4.69 -39.34,-11.69 -0.01,0.38 -0.01,0.78 -0.01,1.17 0,45.31 29.94,83.1 69.67,91.7 -7.29,2.13 -14.96,3.28 -22.88,3.28 -5.6,0 -11.04,-0.59 -16.34,-1.68 11.05,37.15 43.12,64.19 81.13,64.94 -29.72,25.08 -67.18,40.03 -107.87,40.03 -7.01,0 -13.92,-0.44 -20.71,-1.31 38.43,26.53 84.09,42.02 133.13,42.02 159.75,0 247.11,-142.5 247.11,-266.07 0,-4.05 -0.08,-8.09 -0.25,-12.1 16.97,-13.18 31.7,-29.65 43.34,-48.4z"/>
  </g>
  <g id="_2285051383152">
   <path fill="#C4C4C4" fill-rule="nonzero" fill-opacity="0.501961" d="M687.92 1719.78c0,-189.96 -154,-343.96 -343.96,-343.96 -189.96,0 -343.96,154 -343.96,343.96 0,189.96 154,343.96 343.96,343.96 189.96,0 343.96,-154 343.96,-343.96z"/>
   <path fill="white" d="M423.5 1687.31l-119.39 -59.68c0,0 -33.16,-15.08 -33.16,13.27l0 132.62c0,0 0.61,20.22 33.16,6.62 22.65,-9.46 119.39,-59.68 119.39,-59.68 0,0 24.68,-15.81 0,-33.15zm145.92 132.62c-14.79,42.06 -46.42,47.48 -72.96,53.05 -39.12,8.2 -290.81,7.17 -331.64,-6.64 -25.46,-8.6 -41.12,-12.31 -53.06,-72.93 -7.64,-38.8 -8.15,-152.93 0,-192.3 7.89,-38.12 27.7,-56.02 66.33,-59.68 103.74,-9.83 277.13,-8.44 331.63,0 50.53,7.82 61.09,37.96 66.33,66.31 8.49,45.9 9.49,166.34 -6.63,212.19z"/>
  </g>
  <g id="_2285051384352">
   <path fill="#C4C4C4" fill-rule="nonzero" fill-opacity="0.501961" d="M687.92 343.96c0,-189.96 -154,-343.96 -343.96,-343.96 -189.96,0 -343.96,154 -343.96,343.96 0,189.96 154,343.96 343.96,343.96 189.96,0 343.96,-154 343.96,-343.96z"/>
   <path fill="white" d="M449.79 205.06l-42.33 0c-29.15,0 -28.22,10.4 -28.22,29.41l0 30.11 70.55 0 -14.11 79.38 -56.44 0 0 211.67 -98.78 0 0 -211.67 -42.33 0 0 -79.38 42.33 0 0 -37.38c0,-59.51 31.68,-94.91 106.54,-94.91l62.79 0 0 72.77z"/>
  </g>
  <g id="_2285051385936">
   <path fill="#4B9200" fill-rule="nonzero" d="M687.92 2407.7c0,-189.96 -154,-343.96 -343.96,-343.96 -189.96,0 -343.96,154 -343.96,343.96 0,189.96 154,343.96 343.96,343.96 189.96,0 343.96,-154 343.96,-343.96z"/>
   <path fill="white" d="M423.5 2375.23l-119.39 -59.68c0,0 -33.16,-15.08 -33.16,13.27l0 132.62c0,0 0.61,20.22 33.16,6.62 22.65,-9.46 119.39,-59.68 119.39,-59.68 0,0 24.68,-15.81 0,-33.15zm145.92 132.62c-14.79,42.06 -46.42,47.48 -72.96,53.05 -39.12,8.2 -290.81,7.17 -331.64,-6.64 -25.46,-8.6 -41.12,-12.31 -53.06,-72.93 -7.64,-38.8 -8.15,-152.93 0,-192.3 7.89,-38.12 27.7,-56.02 66.33,-59.68 103.74,-9.83 277.13,-8.44 331.63,0 50.53,7.82 61.09,37.96 66.33,66.31 8.49,45.9 9.49,166.34 -6.63,212.19z"/>
  </g>
  <g id="_2285051387280">
   <path fill="#4B9200" fill-rule="nonzero" d="M687.92 3783.51c0,-189.96 -154,-343.96 -343.96,-343.96 -189.96,0 -343.96,154 -343.96,343.96 0,189.96 154,343.96 343.96,343.96 189.96,0 343.96,-154 343.96,-343.96z"/>
   <path fill="white" d="M555.63 3642.15c-15.57,7.43 -32.31,12.46 -49.88,14.72 17.93,-11.57 31.7,-29.89 38.18,-51.73 -16.78,10.71 -35.37,18.5 -55.15,22.69 -15.84,-18.18 -38.41,-29.53 -63.39,-29.53 -47.97,0 -86.85,41.87 -86.85,93.51 0,7.33 0.76,14.47 2.24,21.31 -72.18,-3.9 -136.17,-41.13 -179.01,-97.71 -7.48,13.82 -11.76,29.88 -11.76,47.02 0,32.44 15.33,61.06 38.64,77.83 -14.24,-0.49 -27.64,-4.69 -39.34,-11.69 -0.01,0.38 -0.01,0.78 -0.01,1.17 0,45.31 29.94,83.1 69.67,91.7 -7.29,2.13 -14.96,3.28 -22.88,3.28 -5.6,0 -11.04,-0.59 -16.34,-1.68 11.05,37.15 43.12,64.19 81.13,64.94 -29.72,25.08 -67.18,40.03 -107.87,40.03 -7.01,0 -13.92,-0.44 -20.71,-1.31 38.43,26.53 84.09,42.02 133.13,42.02 159.75,0 247.11,-142.5 247.11,-266.07 0,-4.05 -0.08,-8.09 -0.25,-12.1 16.97,-13.18 31.7,-29.65 43.34,-48.4z"/>
  </g>
  <g id="_2285051390496">
   <path fill="#4B9200" fill-rule="nonzero" d="M687.92 5159.34c0,-189.96 -154,-343.96 -343.96,-343.96 -189.96,0 -343.96,154 -343.96,343.96 0,189.96 154,343.96 343.96,343.96 189.96,0 343.96,-154 343.96,-343.96z"/>
   <path fill="white" d="M256.69 4948.95c-22.53,1.03 -37.91,4.6 -51.38,9.84 -13.92,5.4 -25.72,12.64 -37.48,24.41 -11.78,11.77 -19.01,23.57 -24.42,37.49 -5.23,13.47 -8.81,28.85 -9.84,51.38 -1.03,22.58 -1.28,29.78 -1.28,87.27 0,57.49 0.25,64.69 1.28,87.27 1.03,22.53 4.61,37.91 9.84,51.37 5.41,13.92 12.64,25.73 24.42,37.5 11.76,11.77 23.56,19 37.48,24.41 13.47,5.24 28.85,8.81 51.38,9.84 22.58,1.03 29.79,1.28 87.27,1.28 57.49,0 64.7,-0.25 87.28,-1.28 22.52,-1.03 37.91,-4.6 51.38,-9.84 13.91,-5.41 25.72,-12.64 37.49,-24.41 11.76,-11.77 18.99,-23.58 24.41,-37.5 5.23,-13.46 8.81,-28.84 9.84,-51.37 1.03,-22.58 1.27,-29.78 1.27,-87.27 0,-57.49 -0.24,-64.69 -1.27,-87.27 -1.03,-22.53 -4.61,-37.91 -9.84,-51.38 -5.42,-13.92 -12.65,-25.72 -24.41,-37.49 -11.77,-11.77 -23.58,-19.01 -37.49,-24.41 -13.47,-5.24 -28.86,-8.81 -51.38,-9.84 -22.58,-1.03 -29.79,-1.28 -87.28,-1.28 -57.48,0 -64.69,0.25 -87.27,1.28zm1.74 382.68c-20.64,-0.94 -31.84,-4.38 -39.3,-7.29 -9.88,-3.84 -16.93,-8.43 -24.34,-15.83 -7.41,-7.41 -11.99,-14.46 -15.84,-24.34 -2.89,-7.46 -6.34,-18.66 -7.28,-39.3 -1.02,-22.32 -1.24,-29.02 -1.24,-85.53 0,-56.52 0.22,-63.21 1.24,-85.54 0.94,-20.63 4.39,-31.84 7.28,-39.3 3.85,-9.88 8.43,-16.93 15.84,-24.34 7.41,-7.4 14.46,-11.99 24.34,-15.83 7.46,-2.9 18.66,-6.34 39.3,-7.29 22.32,-1.01 29.02,-1.23 85.53,-1.23 56.52,0 63.21,0.22 85.54,1.23 20.63,0.95 31.84,4.39 39.3,7.29 9.88,3.84 16.93,8.43 24.34,15.83 7.41,7.41 11.99,14.46 15.83,24.34 2.9,7.46 6.35,18.67 7.29,39.3 1.02,22.33 1.23,29.02 1.23,85.54 0,56.51 -0.21,63.21 -1.23,85.53 -0.94,20.64 -4.39,31.84 -7.29,39.3 -3.84,9.88 -8.42,16.93 -15.83,24.34 -7.41,7.4 -14.46,11.99 -24.34,15.83 -7.46,2.91 -18.67,6.35 -39.3,7.29 -22.32,1.02 -29.01,1.23 -85.54,1.23 -56.51,0 -63.21,-0.21 -85.53,-1.23zm173.12 -285.28c0,14.02 11.37,25.4 25.4,25.4 14.03,0 25.4,-11.38 25.4,-25.4 0,-14.03 -11.37,-25.4 -25.4,-25.4 -14.03,0 -25.4,11.37 -25.4,25.4zm-196.29 113c0,60.03 48.67,108.69 108.7,108.69 60.03,0 108.69,-48.66 108.69,-108.69 0,-60.04 -48.66,-108.7 -108.69,-108.7 -60.03,0 -108.7,48.66 -108.7,108.7zm38.16 -0.01c0,-38.97 31.59,-70.55 70.56,-70.55 38.96,0 70.55,31.58 70.55,70.55 0,38.97 -31.59,70.56 -70.55,70.56 -38.97,0 -70.56,-31.59 -70.56,-70.56z"/>
  </g>
 </g>
</svg>
